<svg width="102" height="96" viewBox="0 0 102 96" fill="none" xmlns="http://www.w3.org/2000/svg">
<ellipse cx="53.3757" cy="47.5" rx="48" ry="47.5" fill="#FFFCF0"/>
<path d="M75.2834 47.8145C75.2834 45.2249 77.6363 43.2722 80.1816 43.7495L92.626 46.0828C94.5822 46.4496 95.9997 48.1576 95.9997 50.1479C95.9997 52.7375 93.6469 54.6902 91.1016 54.213L78.6572 51.8796C76.701 51.5128 75.2834 49.8048 75.2834 47.8145Z" fill="#4D95DF"/>
<path d="M84.8506 38.8638C87.592 38.641 89.8423 40.9999 89.4908 43.7277L87.8971 56.096C87.6482 58.0279 86.0875 59.5258 84.147 59.6952C81.5604 59.921 79.4054 57.7399 79.6624 55.1561L80.8968 42.7468C81.1037 40.6673 82.7677 39.0331 84.8506 38.8638Z" fill="#4D95DF"/>
<path d="M73.9888 48.1929C73.9888 45.7705 76.2278 43.9683 78.5942 44.486L91.7214 47.3575C93.4634 47.7386 94.7051 49.2812 94.7051 51.0644C94.7051 53.4869 92.4661 55.289 90.0996 54.7714L76.9725 51.8998C75.2304 51.5187 73.9888 49.9761 73.9888 48.1929Z" fill="#0D5FB3"/>
<path d="M84.5458 38.8971C86.9592 38.6885 88.9475 40.7641 88.6355 43.1663L86.9047 56.4919C86.675 58.2603 85.245 59.6301 83.4684 59.7837C81.055 59.9922 79.0668 57.9167 79.3788 55.5144L81.1095 42.1888C81.3392 40.4205 82.7692 39.0506 84.5458 38.8971Z" fill="#0D5FB3"/>
<path d="M56.5931 26.7763C62.4521 29.0363 65.2624 39.0193 66.2865 46.0417C66.5888 48.1147 65.0711 49.8725 62.99 49.6319C58.9695 49.167 52.4486 47.7442 43.0329 45.2175C40.9378 44.6552 39.6696 42.5054 40.303 40.4307C43.6797 29.3704 48.6927 23.7287 56.5931 26.7763Z" fill="#FFF1C1"/>
<path d="M48.8054 17.5549C48.8054 22.1646 51.7415 27.0143 55.3634 27.0143C58.9853 27.0143 61.9214 24.3903 61.9214 19.7807C61.9214 15.171 58.9853 10.3213 55.3634 10.3213C51.7415 10.3213 48.8054 12.9453 48.8054 17.5549Z" fill="#FFF1C1"/>
<path d="M54.9616 26.7763C61.0666 29.0331 63.9995 38.9906 65.0719 46.0113C65.3903 48.0957 63.8593 49.8712 61.7628 49.6457C57.568 49.1945 50.7026 47.7627 40.739 45.1987C38.6067 44.65 37.3141 42.4603 37.9848 40.3632C41.5081 29.3475 46.7345 23.735 54.9616 26.7763Z" fill="#EBC648"/>
<path d="M46.4209 17.5549C46.4209 22.1646 49.624 27.0143 53.5751 27.0143C57.5262 27.0143 60.7292 24.3903 60.7292 19.7807C60.7292 15.171 57.5262 10.3213 53.5751 10.3213C49.624 10.3213 46.4209 12.9453 46.4209 17.5549Z" fill="#EBC648"/>
<path d="M5.05776 18.9533L42.3159 23.393C44.0909 23.6045 45.5102 24.9681 45.7924 26.7333L54.6714 82.262C55.0761 84.7929 53.0294 87.046 50.4714 86.8857L11.3138 84.4323C9.38963 84.3117 7.82526 82.8358 7.59302 80.9219L0.613586 23.407C0.301216 20.8329 2.48296 18.6465 5.05776 18.9533Z" fill="#EBC648"/>
<path d="M7.1069 18.0151L43.9692 22.412C45.7573 22.6252 47.1824 24.0071 47.4508 25.7878L55.6584 80.2533C56.0447 82.8165 53.9285 85.0644 51.3467 84.8335L14.4736 81.5348C12.6316 81.3701 11.1428 79.9641 10.8729 78.1345L2.67597 22.5707C2.29131 19.9632 4.48972 17.7029 7.1069 18.0151Z" fill="#FFF1C1" stroke="#FEDF77"/>
<path d="M19.1246 53.7314L41.4424 56.2684L43.03 69.0309L20.7122 67.1282L19.1246 53.7314Z" fill="#EBF5FF" stroke="#0D5FB3"/>
<path d="M34.8555 59.6106C34.7121 59.1266 34.29 58.7776 33.7876 58.7277L23.831 57.7391C22.9534 57.652 22.2672 58.4819 22.5177 59.3275C22.6611 59.8115 23.0832 60.1606 23.5856 60.2105L33.5422 61.199C34.4198 61.2862 35.106 60.4562 34.8555 59.6106Z" fill="#0D5FB3"/>
<path d="M29.1373 63.1745C28.9924 62.592 28.5025 62.1597 27.9064 62.0885L24.0724 61.6303C23.0681 61.5103 22.2544 62.4325 22.4986 63.414C22.6435 63.9965 23.1334 64.4288 23.7294 64.5001L27.5635 64.9582C28.5678 65.0782 29.3815 64.156 29.1373 63.1745Z" fill="#0D5FB3"/>
<path d="M18.9649 33.0645C19.6108 33.2272 16.243 41.513 19.0012 42.1711C22.2513 42.9465 23.6978 37.6702 24.7275 35.3365C26.3047 31.7618 24.4514 26.7366 22.7977 43.4393C21.9891 51.6068 27.1833 35.9397 26.9985 37.7971C26.9544 38.2402 26.3388 42.5928 26.4875 42.6108C27.8578 42.776 29.8177 39.2384 29.6895 40.3015C29.5877 41.1455 28.5592 45.8531 29.8712 45.9734C31.5772 46.1298 35.7403 42.5675 34.8421 40.3697C34.5488 39.6522 33.9784 39.0364 33.524 38.4291C32.6741 37.2931 31.924 36.1465 31.5513 34.7503C30.3764 30.3483 35.8758 26.5924 36.0117 29.1008C36.1475 31.6093 35.2904 34.3969 34.552 36.7586C34.2328 37.7795 33.8138 38.7938 33.6054 39.8475C33.5723 40.0146 33.721 39.5273 33.7769 39.3665C34.2391 38.0373 36.0132 36.4556 37.4967 37.7046C38.6207 38.6508 38.9481 41.5187 39.1535 45.0373" stroke="#EBC648" stroke-linecap="round"/>
<path d="M21.993 53.4768C21.993 54.533 20.9227 55.6442 19.6025 55.6442C18.2822 55.6442 17.2119 55.043 17.2119 53.9868C17.2119 52.9306 18.2822 51.8193 19.6025 51.8193C20.9227 51.8193 21.993 52.4206 21.993 53.4768Z" fill="#0D5FB3"/>
<path d="M43.9862 55.8033C43.9862 57.1235 42.9159 58.5125 41.5956 58.5125C40.2754 58.5125 39.2051 57.761 39.2051 56.4407C39.2051 55.1205 40.2754 53.7314 41.5956 53.7314C42.9159 53.7314 43.9862 54.483 43.9862 55.8033Z" fill="#0D5FB3"/>
<path d="M22.9496 66.8635C22.9496 67.9197 21.8793 69.0309 20.559 69.0309C19.2387 69.0309 18.1685 68.4297 18.1685 67.3735C18.1685 66.3173 19.2387 65.2061 20.559 65.2061C21.8793 65.2061 22.9496 65.8073 22.9496 66.8635Z" fill="#0D5FB3"/>
<path d="M44.9422 69.19C44.9422 70.5102 43.8719 71.8993 42.5517 71.8993C41.2314 71.8993 40.1611 71.1477 40.1611 69.8275C40.1611 68.5072 41.2314 67.1182 42.5517 67.1182C43.8719 67.1182 44.9422 67.8697 44.9422 69.19Z" fill="#0D5FB3"/>
<path d="M67.576 48.4261C76.7234 51.4499 82.055 65.353 82.908 77.7145C83.0447 79.6961 81.5586 81.339 79.5768 81.2053C73.7058 80.8092 62.7675 78.6154 47.011 74.3008C44.9315 73.7314 43.6816 71.5989 44.2579 69.5213C48.9112 52.7442 55.4393 44.4143 67.576 48.4261Z" fill="#4D95DF"/>
<path d="M65.5527 48.4258C74.5359 51.8204 78.597 67.4297 79.8822 77.4606C80.1493 79.5451 78.6321 81.345 76.5366 81.1862C70.6897 80.7431 60.1736 78.5468 44.1333 74.2871C42.0216 73.7262 40.7488 71.5593 41.3626 69.4623C46.2811 52.6614 53.6762 43.9378 65.5527 48.4258Z" fill="#0D5FB3"/>
<path d="M56.593 35.6129C56.593 41.7388 60.8969 48.1837 66.2059 48.1837C71.515 48.1837 75.8188 44.6966 75.8188 38.5707C75.8188 32.4449 71.515 26 66.2059 26C60.8969 26 56.593 29.4871 56.593 35.6129Z" fill="#4D95DF"/>
<path d="M53.6357 35.6129C53.6357 41.7388 57.9396 48.1837 63.2487 48.1837C68.5577 48.1837 72.8616 44.6966 72.8616 38.5707C72.8616 32.4449 68.5577 26 63.2487 26C57.9396 26 53.6357 29.4871 53.6357 35.6129Z" fill="#0D5FB3"/>
</svg>
