<svg width="315" height="270" viewBox="0 0 315 270" fill="none" xmlns="http://www.w3.org/2000/svg">
<mask id="mask0_511_23969" style="mask-type:alpha" maskUnits="userSpaceOnUse" x="0" y="0" width="315" height="270">
<rect width="315" height="270" fill="#D9D9D9"/>
</mask>
<g mask="url(#mask0_511_23969)">
<path opacity="0.41" d="M72.2288 192.21C7.77767 181.4 -4.20148 109.185 25.2698 70.517C54.7411 31.8489 83.5439 36.87 112.937 46.883C128.599 52.2123 138.362 70.4732 154.831 69.2149C170.421 68.0214 182.296 55.3771 196.045 48.0454C222.641 33.8627 247.888 50.0493 259.718 61.1494C283.059 80.3961 303.142 122.43 271.925 170.845C235.217 220.909 190.279 220.677 162.538 224.164" fill="#B3E7F2"/>
<g filter="url(#filter0_f_511_23969)">
<path fillRule="evenodd" clip-rule="evenodd" d="M128.5 235C164.121 235 193 237.462 193 240.5C193 243.538 164.123 246 128.5 246C92.8768 246 64 243.538 64 240.5C64 237.462 92.8775 235 128.5 235Z" fill="#CADAEB"/>
</g>
<g clip-path="url(#clip0_511_23969)">
<path d="M189.081 220.674C213.4 195.858 246.406 144.737 227.049 113.469C206.866 80.8662 184.614 80.7118 180.892 80.7119" stroke="white" stroke-width="2" stroke-dasharray="2 5"/>
<g style="mix-blend-mode:multiply" opacity="0.75">
<path d="M159.6 99.8992C144.782 99.924 129.975 99.1149 115.248 97.476C115.045 97.4643 114.844 97.5211 114.677 97.6373C114.51 97.7534 114.387 97.9222 114.328 98.1165C114.298 98.2 114.288 98.2891 114.297 98.3772C114.307 98.4652 114.337 98.5499 114.385 98.6246C114.432 98.6993 114.497 98.7622 114.572 98.8083C114.648 98.8544 114.733 98.8826 114.821 98.8907C129.565 100.536 144.389 101.359 159.224 101.356C159.432 101.334 159.629 101.249 159.786 101.111C159.943 100.973 160.054 100.79 160.104 100.587C160.124 100.508 160.127 100.426 160.111 100.345C160.096 100.265 160.063 100.19 160.015 100.124C159.966 100.058 159.904 100.004 159.832 99.9648C159.761 99.9259 159.681 99.9035 159.6 99.8992Z" fill="#FFE078"/>
<path d="M187.584 197.065C171.227 197 154.887 196.006 138.644 194.087C138.43 194.068 138.215 194.116 138.03 194.225C137.844 194.335 137.698 194.499 137.611 194.696C137.571 194.78 137.553 194.873 137.559 194.966C137.565 195.059 137.594 195.149 137.644 195.228C137.693 195.307 137.763 195.371 137.844 195.416C137.926 195.461 138.018 195.484 138.111 195.484C154.369 197.436 170.725 198.466 187.1 198.571C187.325 198.562 187.542 198.485 187.723 198.352C187.905 198.218 188.042 198.034 188.118 197.821C188.152 197.736 188.165 197.643 188.154 197.552C188.143 197.46 188.11 197.373 188.057 197.298C188.004 197.223 187.932 197.162 187.85 197.121C187.767 197.081 187.676 197.062 187.584 197.065Z" fill="#FFE078"/>
<path d="M213.527 87.4938C201.767 89.3564 189.938 90.6296 178.041 91.3134C177.853 91.3425 177.68 91.4285 177.543 91.5598C177.406 91.6911 177.313 91.8613 177.276 92.0473L177.25 92.2061C177.221 92.2829 177.212 92.3655 177.224 92.4465C177.236 92.5275 177.267 92.6042 177.316 92.6699C177.365 92.7355 177.43 92.7879 177.504 92.8223C177.578 92.8567 177.66 92.8721 177.741 92.8669C189.642 92.1922 201.493 90.9421 213.292 89.1166C213.484 89.0681 213.658 88.9623 213.789 88.8132C213.92 88.6641 214.003 88.4787 214.027 88.2815L214.04 88.1288C214.104 87.725 213.876 87.4353 213.527 87.4938Z" fill="#FFE078"/>
<path d="M209.795 108.776C177.18 112.823 144.186 112.745 111.591 108.543C111.491 108.534 111.395 108.502 111.309 108.45C111.223 108.397 111.151 108.326 111.097 108.242C111.044 108.157 111.01 108.061 110.999 107.961C110.989 107.861 111.001 107.761 111.035 107.666C111.122 107.47 111.268 107.305 111.453 107.196C111.638 107.086 111.853 107.038 112.067 107.057C144.616 111.176 177.553 111.175 210.101 107.056C210.53 106.994 210.822 107.353 210.734 107.849C210.683 108.078 210.567 108.286 210.4 108.45C210.234 108.615 210.023 108.728 209.795 108.776Z" fill="#FFE078"/>
<path d="M208.665 115.106C175.807 118.89 142.604 118.528 109.837 114.027C109.737 114.018 109.641 113.986 109.555 113.934C109.47 113.882 109.397 113.81 109.344 113.726C109.29 113.641 109.256 113.545 109.246 113.445C109.235 113.346 109.247 113.245 109.281 113.151C109.358 112.935 109.504 112.751 109.696 112.627C109.888 112.503 110.116 112.445 110.344 112.463C143.064 116.877 176.21 117.161 209.001 113.308C209.43 113.246 209.728 113.619 209.64 114.115C209.596 114.359 209.479 114.584 209.305 114.761C209.131 114.938 208.908 115.058 208.665 115.106Z" fill="#FFE078"/>
<path d="M207.343 122.028C174.216 125.512 140.783 124.837 107.822 120.019C107.721 120.008 107.624 119.974 107.538 119.919C107.453 119.864 107.381 119.789 107.329 119.702C107.277 119.614 107.246 119.516 107.239 119.414C107.232 119.313 107.249 119.211 107.288 119.117C107.366 118.905 107.513 118.725 107.706 118.607C107.898 118.488 108.124 118.437 108.349 118.462C141.263 123.186 174.638 123.782 207.7 120.237C208.149 120.182 208.426 120.547 208.338 121.044C208.292 121.289 208.171 121.514 207.994 121.69C207.816 121.866 207.589 121.983 207.343 122.028Z" fill="#FFE078"/>
<path d="M206.162 128.022C172.805 131.238 139.177 130.284 106.056 125.183C105.955 125.174 105.857 125.141 105.77 125.087C105.683 125.033 105.61 124.959 105.557 124.872C105.504 124.785 105.472 124.687 105.463 124.585C105.455 124.483 105.47 124.381 105.508 124.286C105.593 124.075 105.744 123.898 105.939 123.781C106.135 123.664 106.363 123.614 106.589 123.639C139.663 128.646 173.232 129.506 206.519 126.198C206.621 126.19 206.723 126.207 206.816 126.248C206.91 126.29 206.991 126.354 207.053 126.435C207.116 126.515 207.156 126.611 207.172 126.711C207.188 126.812 207.179 126.915 207.145 127.011C207.103 127.26 206.987 127.49 206.811 127.671C206.636 127.852 206.409 127.974 206.162 128.022Z" fill="#FFE078"/>
<path d="M204.796 134.59C171.177 137.498 137.328 136.217 104.025 130.775C103.924 130.764 103.827 130.73 103.741 130.675C103.655 130.62 103.584 130.545 103.532 130.458C103.48 130.37 103.449 130.272 103.442 130.17C103.435 130.068 103.451 129.967 103.491 129.873C103.574 129.66 103.726 129.482 103.924 129.367C104.121 129.252 104.351 129.207 104.577 129.239C137.831 134.594 171.622 135.793 205.171 132.806C205.273 132.798 205.375 132.815 205.469 132.856C205.562 132.897 205.643 132.961 205.705 133.042C205.768 133.123 205.809 133.218 205.825 133.319C205.84 133.42 205.831 133.523 205.797 133.619C205.741 133.86 205.617 134.08 205.44 134.252C205.262 134.425 205.038 134.542 204.796 134.59Z" fill="#FFE078"/>
<path d="M200.281 154.671C165.907 156.662 131.419 154.42 97.5928 147.996C97.4919 147.983 97.3954 147.947 97.3108 147.891C97.2262 147.835 97.1559 147.76 97.1053 147.671C97.0548 147.583 97.0254 147.485 97.0196 147.383C97.0137 147.282 97.0316 147.18 97.0717 147.087C97.1641 146.876 97.3246 146.703 97.5274 146.594C97.7303 146.486 97.9636 146.448 98.1902 146.488C131.969 152.834 166.403 154.987 200.71 152.896C200.813 152.888 200.917 152.906 201.011 152.949C201.106 152.992 201.188 153.058 201.25 153.141C201.312 153.225 201.351 153.322 201.365 153.425C201.378 153.528 201.365 153.633 201.327 153.729C201.267 153.973 201.136 154.193 200.949 154.361C200.762 154.529 200.529 154.637 200.281 154.671Z" fill="#FFE078"/>
<path d="M198.691 160.849C164.085 162.557 129.4 160.009 95.4155 153.262C95.3147 153.249 95.2182 153.214 95.1336 153.157C95.049 153.101 94.9786 153.026 94.9281 152.938C94.8775 152.85 94.8482 152.751 94.8423 152.65C94.8365 152.548 94.8543 152.447 94.8944 152.353C95.007 152.152 95.1815 151.992 95.392 151.898C95.6026 151.804 95.8379 151.78 96.0631 151.83C130 158.486 164.625 160.951 199.163 159.169C199.266 159.161 199.37 159.179 199.464 159.222C199.559 159.265 199.641 159.331 199.703 159.414C199.765 159.497 199.804 159.595 199.818 159.698C199.831 159.801 199.818 159.906 199.78 160.002C199.7 160.233 199.554 160.437 199.361 160.587C199.168 160.737 198.935 160.828 198.691 160.849Z" fill="#FFE078"/>
<path d="M196.952 167.566C162.095 168.933 127.202 166.036 93.0476 158.94C92.9459 158.926 92.8488 158.889 92.7637 158.831C92.6786 158.774 92.6079 158.697 92.5569 158.608C92.506 158.519 92.4762 158.42 92.4699 158.317C92.4635 158.215 92.4808 158.112 92.5204 158.017C92.633 157.816 92.8075 157.656 93.018 157.562C93.2286 157.468 93.4639 157.444 93.6891 157.494C127.795 164.515 162.634 167.323 197.425 165.854C197.53 165.841 197.636 165.856 197.733 165.897C197.83 165.939 197.914 166.005 197.977 166.09C198.039 166.175 198.079 166.274 198.09 166.379C198.102 166.484 198.085 166.59 198.043 166.686C197.966 166.923 197.822 167.132 197.628 167.289C197.435 167.445 197.2 167.541 196.952 167.566Z" fill="#FFE078"/>
<path d="M195.405 173.365C160.327 174.46 125.246 171.257 90.9461 163.828C90.8439 163.819 90.7453 163.785 90.6589 163.729C90.5725 163.674 90.5007 163.598 90.4496 163.509C90.3985 163.42 90.3696 163.32 90.3653 163.217C90.3611 163.115 90.3815 163.013 90.425 162.92C90.5338 162.715 90.7078 162.552 90.9195 162.457C91.1312 162.362 91.3684 162.341 91.5937 162.396C125.848 169.719 160.869 172.828 195.878 171.652C195.981 171.644 196.085 171.662 196.18 171.705C196.274 171.747 196.356 171.814 196.418 171.897C196.48 171.98 196.519 172.078 196.533 172.181C196.547 172.284 196.534 172.389 196.495 172.485C196.422 172.724 196.279 172.935 196.085 173.092C195.891 173.249 195.654 173.344 195.405 173.365Z" fill="#FFE078"/>
<path d="M193.635 179.721C158.325 180.491 123.052 176.954 88.5987 169.187C88.4955 169.176 88.3965 169.14 88.3097 169.084C88.2229 169.027 88.1507 168.95 88.0993 168.86C88.0478 168.77 88.0184 168.669 88.0136 168.566C88.0088 168.462 88.0286 168.359 88.0715 168.264C88.184 168.063 88.3585 167.903 88.5691 167.809C88.7796 167.715 89.0149 167.691 89.2401 167.741C123.652 175.406 158.87 178.847 194.115 177.989C194.22 177.982 194.324 178.002 194.419 178.046C194.514 178.09 194.596 178.158 194.658 178.242C194.72 178.326 194.76 178.424 194.774 178.528C194.788 178.632 194.776 178.737 194.739 178.835C194.661 179.074 194.515 179.285 194.319 179.442C194.123 179.599 193.885 179.696 193.635 179.721Z" fill="#FFE078"/>
</g>
<path d="M187.016 229.459C186.858 229.529 186.69 229.572 186.517 229.584C137.95 233.046 96.1468 225.713 58.7206 207.169C58.5335 207.075 58.3685 206.941 58.2365 206.778C58.1044 206.616 58.0083 206.426 57.9544 206.224C57.8974 206.022 57.8838 205.81 57.9145 205.602C57.9452 205.394 58.0195 205.195 58.1325 205.018C88.4162 158.288 98.037 135.218 109.661 81.5746C109.709 81.3473 109.81 81.1344 109.955 80.9531C110.101 80.7719 110.287 80.6271 110.498 80.5306C110.742 80.4214 111.011 80.3799 111.276 80.4104C148.006 84.6395 185.16 83.395 221.524 76.7175C221.755 76.6743 221.993 76.6864 222.218 76.7528C222.444 76.8192 222.65 76.9379 222.821 77.0993C222.99 77.26 223.12 77.4583 223.198 77.6782C223.277 77.898 223.303 78.1333 223.274 78.365C216.986 129.589 205.079 179.966 187.766 228.584C187.706 228.773 187.608 228.947 187.479 229.097C187.35 229.247 187.193 229.37 187.016 229.459Z" fill="#FFF1C1"/>
<path d="M111.107 81.89C147.99 86.1499 185.301 84.9121 221.82 78.2169C215.544 129.325 203.669 179.588 186.408 228.1C138.946 231.41 96.6627 224.243 59.3775 205.832C89.3922 159.63 99.2158 136.648 111.107 81.89ZM109.89 79.1721C109.464 79.3642 109.089 79.6538 108.795 80.0176C108.502 80.3814 108.298 80.8092 108.201 81.2663C96.6402 134.686 87.0311 157.637 56.8875 204.206C56.6583 204.56 56.5069 204.958 56.4432 205.375C56.3795 205.791 56.4049 206.217 56.5179 206.623C56.628 207.028 56.8226 207.406 57.0891 207.731C57.3555 208.056 57.6877 208.321 58.0638 208.508C95.779 227.151 137.792 234.553 186.628 231.069C186.972 231.044 187.309 230.959 187.625 230.818C187.993 230.656 188.325 230.421 188.6 230.126C188.874 229.832 189.087 229.485 189.224 229.107C206.559 180.39 218.482 129.914 224.777 78.5895C224.837 78.1235 224.785 77.65 224.627 77.2077C224.468 76.7654 224.208 76.3669 223.866 76.0446C223.524 75.7251 223.111 75.4907 222.662 75.3603C222.212 75.23 221.738 75.2075 221.278 75.2946C185.049 81.9342 148.035 83.16 111.446 78.9319C110.925 78.8719 110.398 78.9506 109.917 79.16L109.89 79.1721Z" fill="#EBC648"/>
<path d="M160.518 98.672C145.708 98.7205 130.906 97.9362 116.184 96.3228C115.984 96.309 115.785 96.3628 115.62 96.4754C115.454 96.588 115.331 96.7529 115.271 96.9437C115.238 97.0283 115.226 97.1194 115.235 97.2096C115.244 97.2999 115.274 97.3868 115.322 97.4633C115.371 97.5399 115.437 97.604 115.514 97.6506C115.592 97.6971 115.68 97.7249 115.77 97.7315C130.513 99.3837 145.338 100.207 160.173 100.197C160.38 100.184 160.577 100.104 160.735 99.9684C160.892 99.8332 161.001 99.6503 161.045 99.4476C161.079 99.3616 161.092 99.2686 161.082 99.1766C161.072 99.0846 161.039 98.9964 160.987 98.9199C160.935 98.8433 160.866 98.7807 160.784 98.7375C160.702 98.6942 160.611 98.6718 160.518 98.672Z" fill="#EBC648"/>
<path d="M188.489 195.844C172.139 195.771 155.807 194.78 139.569 192.873C139.353 192.853 139.136 192.901 138.948 193.008C138.76 193.116 138.609 193.279 138.517 193.475C138.481 193.561 138.467 193.654 138.475 193.746C138.483 193.838 138.513 193.928 138.562 194.006C138.612 194.085 138.679 194.15 138.76 194.197C138.84 194.244 138.93 194.271 139.022 194.276C155.286 196.223 171.646 197.251 188.024 197.357C188.25 197.348 188.467 197.272 188.648 197.138C188.83 197.004 188.967 196.82 189.043 196.608C189.076 196.52 189.086 196.426 189.074 196.333C189.061 196.241 189.026 196.153 188.971 196.077C188.916 196.002 188.843 195.941 188.759 195.9C188.675 195.859 188.582 195.84 188.489 195.844Z" fill="#EBC648"/>
<path d="M214.452 86.2809C202.683 88.1254 190.854 89.3986 178.966 90.1006C178.774 90.1252 178.595 90.2102 178.455 90.3433C178.316 90.4763 178.222 90.6505 178.188 90.8405L178.155 90.9857C178.131 91.0637 178.125 91.1461 178.139 91.2265C178.153 91.3069 178.185 91.3829 178.233 91.4485C178.282 91.5141 178.345 91.5674 178.418 91.6042C178.491 91.6409 178.571 91.6601 178.652 91.6601C190.554 90.9854 202.408 89.7333 214.216 87.9038C214.405 87.8515 214.573 87.745 214.702 87.5976C214.83 87.4503 214.912 87.2684 214.938 87.0747L214.965 86.9159C215.029 86.5121 214.788 86.2286 214.452 86.2809Z" fill="#EBC648"/>
<path d="M210.706 107.568C178.091 111.603 145.098 111.525 112.502 107.336C112.402 107.324 112.305 107.289 112.22 107.234C112.135 107.18 112.064 107.107 112.011 107.02C111.958 106.934 111.926 106.837 111.916 106.736C111.906 106.636 111.919 106.534 111.954 106.439C112.031 106.228 112.175 106.047 112.364 105.924C112.554 105.801 112.777 105.742 113.003 105.758C145.54 109.868 178.466 109.867 211.003 105.755C211.452 105.701 211.73 106.066 211.642 106.562C211.603 106.804 211.493 107.028 211.327 107.207C211.16 107.387 210.944 107.512 210.706 107.568Z" fill="#EBC648"/>
<path d="M209.601 113.953C176.738 117.729 143.532 117.369 110.76 112.88C110.659 112.868 110.563 112.833 110.478 112.778C110.393 112.724 110.321 112.65 110.268 112.564C110.216 112.478 110.183 112.381 110.173 112.28C110.163 112.18 110.176 112.078 110.211 111.983C110.291 111.769 110.439 111.588 110.632 111.466C110.825 111.344 111.052 111.289 111.28 111.309C143.998 115.725 177.143 116.004 209.931 112.14C210.034 112.128 210.138 112.142 210.234 112.182C210.329 112.222 210.413 112.287 210.476 112.369C210.539 112.451 210.579 112.548 210.594 112.65C210.608 112.753 210.595 112.857 210.556 112.954C210.515 113.196 210.401 113.421 210.231 113.599C210.061 113.777 209.841 113.9 209.601 113.953Z" fill="#EBC648"/>
<path d="M208.268 120.815C175.14 124.292 141.708 123.617 108.747 118.807C108.647 118.794 108.551 118.76 108.466 118.705C108.381 118.65 108.309 118.577 108.256 118.491C108.204 118.405 108.171 118.308 108.161 118.207C108.151 118.106 108.164 118.005 108.199 117.91C108.281 117.698 108.431 117.518 108.625 117.399C108.819 117.279 109.047 117.227 109.274 117.249C142.185 121.979 175.56 122.57 208.619 119.01C208.72 119.002 208.822 119.019 208.916 119.06C209.009 119.102 209.09 119.166 209.153 119.247C209.215 119.327 209.256 119.423 209.272 119.523C209.287 119.624 209.278 119.727 209.244 119.823C209.199 120.067 209.083 120.292 208.909 120.469C208.735 120.646 208.512 120.767 208.268 120.815Z" fill="#EBC648"/>
<path d="M207.086 126.809C173.733 130.038 140.107 129.1 106.985 124.016C106.884 124.005 106.787 123.971 106.701 123.915C106.616 123.86 106.544 123.786 106.492 123.698C106.44 123.611 106.41 123.512 106.402 123.411C106.395 123.309 106.412 123.207 106.451 123.113C106.531 122.899 106.682 122.719 106.878 122.601C107.074 122.484 107.305 122.436 107.531 122.466C140.601 127.466 174.165 128.328 207.449 125.031C207.897 124.977 208.175 125.342 208.087 125.838C208.03 126.079 207.906 126.298 207.728 126.47C207.551 126.642 207.328 126.759 207.086 126.809Z" fill="#EBC648"/>
<path d="M205.72 133.375C172.102 136.277 138.253 134.996 104.95 129.561C104.848 129.552 104.75 129.519 104.664 129.465C104.577 129.411 104.504 129.337 104.451 129.25C104.397 129.163 104.365 129.065 104.357 128.963C104.348 128.862 104.364 128.759 104.402 128.664C104.486 128.45 104.641 128.27 104.841 128.154C105.04 128.038 105.273 127.992 105.502 128.025C138.748 133.364 172.529 134.539 206.066 131.524C206.17 131.513 206.274 131.53 206.37 131.571C206.466 131.613 206.549 131.678 206.613 131.761C206.676 131.844 206.717 131.941 206.732 132.045C206.746 132.148 206.734 132.253 206.697 132.351C206.655 132.599 206.539 132.83 206.365 133.012C206.191 133.195 205.967 133.321 205.72 133.375Z" fill="#EBC648"/>
<path d="M201.131 153.475C166.758 155.482 132.268 153.24 98.4436 146.799C98.3423 146.788 98.245 146.754 98.1594 146.699C98.0738 146.644 98.0022 146.57 97.9503 146.482C97.8984 146.394 97.8676 146.296 97.8604 146.194C97.8532 146.093 97.8698 145.991 97.9088 145.897C98.0176 145.692 98.1916 145.529 98.4033 145.435C98.615 145.34 98.8522 145.318 99.0775 145.373C132.858 151.714 167.29 153.866 201.597 151.782C201.7 151.773 201.804 151.791 201.899 151.834C201.993 151.877 202.075 151.943 202.137 152.027C202.199 152.11 202.238 152.208 202.252 152.31C202.266 152.413 202.253 152.518 202.214 152.615C202.14 152.85 201.998 153.057 201.805 153.21C201.612 153.364 201.377 153.456 201.131 153.475Z" fill="#EBC648"/>
<path d="M199.616 159.636C165.01 161.344 130.325 158.796 96.3404 152.049C96.2392 152.038 96.1419 152.003 96.0563 151.948C95.9706 151.893 95.899 151.819 95.8471 151.731C95.7952 151.644 95.7645 151.545 95.7573 151.444C95.7501 151.342 95.7666 151.24 95.8057 151.146C95.9044 150.936 96.0692 150.765 96.2749 150.658C96.4805 150.551 96.7156 150.515 96.9439 150.555C130.892 157.209 165.53 159.663 200.078 157.862C200.182 157.854 200.285 157.872 200.38 157.915C200.474 157.958 200.556 158.024 200.618 158.107C200.68 158.19 200.72 158.288 200.733 158.391C200.747 158.494 200.734 158.599 200.696 158.695C200.634 158.944 200.497 159.167 200.304 159.335C200.111 159.503 199.871 159.608 199.616 159.636Z" fill="#EBC648"/>
<path d="M197.871 166.339C163.013 167.722 128.118 164.825 93.9661 157.712C93.8639 157.703 93.7653 157.669 93.6789 157.613C93.5925 157.558 93.5207 157.482 93.4696 157.393C93.4185 157.304 93.3896 157.204 93.3853 157.101C93.3811 156.999 93.4015 156.896 93.445 156.803C93.5538 156.599 93.7278 156.436 93.9395 156.341C94.1512 156.246 94.3884 156.225 94.6137 156.28C128.725 163.299 163.566 166.115 198.362 164.667C198.465 164.658 198.569 164.676 198.663 164.719C198.758 164.762 198.84 164.828 198.902 164.912C198.964 164.995 199.003 165.093 199.017 165.195C199.03 165.298 199.017 165.403 198.979 165.5C198.898 165.733 198.75 165.938 198.552 166.087C198.355 166.237 198.118 166.324 197.871 166.339Z" fill="#EBC648"/>
<path d="M196.298 172.117C161.226 173.214 126.152 170.014 91.8587 162.588C91.7564 162.579 91.6579 162.545 91.5715 162.489C91.4851 162.434 91.4133 162.358 91.3622 162.269C91.3111 162.18 91.2822 162.08 91.2779 161.977C91.2736 161.875 91.2941 161.772 91.3376 161.679C91.4464 161.475 91.6204 161.312 91.8321 161.217C92.0437 161.122 92.281 161.101 92.5062 161.156C126.761 168.479 161.782 171.587 196.79 170.412C196.894 170.404 196.998 170.422 197.092 170.464C197.187 170.507 197.269 170.573 197.331 170.657C197.392 170.74 197.432 170.838 197.446 170.941C197.459 171.044 197.446 171.148 197.408 171.245C197.331 171.484 197.184 171.695 196.986 171.85C196.788 172.006 196.549 172.099 196.298 172.117Z" fill="#EBC648"/>
<path d="M194.54 178.501C159.23 179.274 123.957 175.736 89.5038 167.966C89.4029 167.954 89.3064 167.918 89.2218 167.862C89.1372 167.805 89.0669 167.73 89.0163 167.642C88.9658 167.554 88.9364 167.455 88.9306 167.354C88.9247 167.252 88.9426 167.151 88.9826 167.058C89.095 166.853 89.2713 166.69 89.4848 166.594C89.6982 166.499 89.9371 166.475 90.1649 166.528C124.578 174.198 159.799 177.644 195.046 176.789C195.15 176.779 195.256 176.795 195.351 176.838C195.447 176.881 195.53 176.949 195.591 177.034C195.653 177.119 195.69 177.219 195.701 177.323C195.711 177.428 195.693 177.533 195.65 177.628C195.576 177.87 195.43 178.083 195.232 178.239C195.033 178.395 194.792 178.486 194.54 178.501Z" fill="#EBC648"/>
<path d="M187.806 161.86C164.513 186.428 142.178 192.384 134.734 217.696C131.012 236.308 150.368 241.52 164.513 231.841" stroke="white" stroke-width="2" stroke-dasharray="2 5"/>
<path d="M181.636 79.9665C164.016 73.7626 102.763 63.3414 87.0867 120.169C81.1309 141.759 83.5786 172.283 114.847 199.829" stroke="white" stroke-width="2" stroke-dasharray="2 5"/>
</g>
<path d="M202.21 138.48L188.899 160.843L178.57 122.206L310.671 69.0187L202.21 138.48Z" fill="#E7D3D3"/>
<path d="M188.901 160.845L209.43 147.079L202.211 138.481L188.901 160.845Z" fill="#CEABAB"/>
<path d="M217.527 157.17L202.212 138.479L310.673 69.0184L179.559 121.781L156.514 120.472L145.564 109.736L310.673 69.0184L237.309 165.036L217.527 157.17Z" fill="#FFFCF0"/>
<path d="M65.8566 97.7664C58.0137 97.5567 36.8536 98.2002 27.254 98.5482C25.957 105.969 28.5622 108.687 38.4019 115.052C46.2737 120.145 66.6732 126.42 75.889 128.922L78.6757 138.87L84.959 138.059C84.9853 137.292 84.9592 133.401 84.6446 123.974C84.2333 109.139 75.6602 98.0284 65.8566 97.7664Z" fill="#B7B7B7"/>
<path d="M30.8244 169.924L37.1088 159.198L44.4317 169.961L31.8022 171.423C30.9828 171.518 30.4074 170.635 30.8244 169.924Z" fill="#12B67F"/>
<path d="M36.9556 158.748L92.3863 121.909L100.875 135.712L44.4852 170.009L44.2393 169.938C40.1107 168.739 37.2105 165.036 37.0364 160.74L36.9556 158.748Z" fill="#1ACC90"/>
<path d="M89.2024 125.581L86.2519 127.346L84.5602 125.449L64.0713 140.036L63.9847 139.891C63.4727 139.035 63.67 137.932 64.4472 137.306L84.4395 121.214C85.2804 120.537 86.5067 120.65 87.2103 121.468L89.4476 124.071C89.8519 124.542 89.7348 125.263 89.2024 125.581Z" fill="#303030"/>
<ellipse cx="96.3304" cy="128.83" rx="2.8241" ry="8.10052" transform="rotate(-30.8758 96.3304 128.83)" fill="#029463"/>
<path d="M94.0669 127.886C93.5 126.937 93.8091 125.709 94.7571 125.143L99.6081 122.242C100.556 121.675 101.784 121.984 102.351 122.932L104.532 126.58C105.099 127.528 104.79 128.756 103.842 129.323L98.9907 132.223C98.0426 132.79 96.8146 132.481 96.2477 131.533L94.0669 127.886Z" fill="#303030"/>
<ellipse cx="102.076" cy="125.559" rx="4.023" ry="1.7485" transform="rotate(60.9287 102.076 125.559)" fill="black"/>
<path d="M82.5804 144.445C75.3575 144.769 75.6615 137.742 76.7164 134.188C73.5193 127.005 64.2282 131.242 53.4832 133.008C42.7383 134.775 42.208 130.665 41.2092 125.857C31.1604 127.154 30.6649 120.382 30.2793 117.393C23.3525 119.426 21.1542 117.052 20.0724 114.533C19.207 112.518 18.7335 110.022 18.605 109.025C19.2253 108.945 24.4276 107.818 40.2743 103.95C60.0827 99.1156 63.6733 100.551 70.9992 104.543C78.325 108.535 84.5052 127.106 86.5723 131.397C88.6395 135.688 91.6091 144.039 82.5804 144.445Z" fill="#FAFFEB"/>
</g>
<defs>
<filter id="filter0_f_511_23969" x="59" y="230" width="139" height="21" filterUnits="userSpaceOnUse" color-interpolation-filters="sRGB">
<feFlood flood-opacity="0" result="BackgroundImageFix"/>
<feBlend mode="normal" in="SourceGraphic" in2="BackgroundImageFix" result="shape"/>
<feGaussianBlur stdDeviation="2.5" result="effect1_foregroundBlur_511_23969"/>
</filter>
<clipPath id="clip0_511_23969">
<rect width="206.37" height="170.173" fill="white" transform="translate(17.8506 120.392) rotate(-24.1249)"/>
</clipPath>
</defs>
</svg>
