<svg width="79" height="80" viewBox="0 0 79 80" fill="none" xmlns="http://www.w3.org/2000/svg">
<path d="M12.546 67.5979L17.6243 6.85205H61.0317L55.9534 67.5979H12.546Z" fill="#D9D9D9" stroke="#6EA194" stroke-width="7"/>
<g filter="url(#filter0_f_524_25738)">
<path fill-rule="evenodd" clip-rule="evenodd" d="M32.5178 68.3101C47.7154 68.3101 60.0366 69.6369 60.0366 71.2736C60.0366 72.9104 47.7163 74.2372 32.5178 74.2372C17.3193 74.2372 4.99902 72.9104 4.99902 71.2736C4.99902 69.6369 17.3196 68.3101 32.5178 68.3101Z" fill="#016A30" fill-opacity="0.3"/>
</g>
<path d="M61.8154 6.37256H17.2226C17.0435 9.51239 16.2824 19.3176 14.6706 33.4199C13.0589 47.5222 8.89507 56.6475 7.01465 63.3308H51.6074C56.8726 44.7072 60.6066 20.1878 61.8154 6.37256Z" fill="white" stroke="#6EA194"/>
<path fill-rule="evenodd" clip-rule="evenodd" d="M9.99512 63.0029L10.6623 60.4454C21.7452 60.0902 44.6356 57.8452 47.5342 51.707C50.4328 45.5688 48.742 37.214 47.5342 33.8038H51.7969L50.305 31.6725C52.2232 25.8469 55.9743 13.3857 55.6333 10.1461C55.4733 8.62591 53.1795 7.51558 50.2758 6.73584H61.8136C60.6194 20.3834 56.9308 44.6052 51.7295 63.0029H9.99512Z" fill="#F3FFF9"/>
<path d="M39.8086 56.9297C39.8773 56.7922 40.0911 56.687 40.2055 56.6065C40.8449 56.1564 41.4831 55.7007 42.1531 55.2967C42.4068 55.1437 43.3021 54.5294 43.6642 54.7467C43.9455 54.9155 43.2846 56.1436 43.2106 56.2719C42.7059 57.1477 42.0087 57.8761 41.4019 58.676C41.376 58.7101 41.2951 58.808 41.3282 58.7809C41.5806 58.5743 41.812 58.344 42.0596 58.1317C42.9409 57.3757 43.9121 56.603 44.9399 56.0536C45.146 55.9435 45.4294 55.7383 45.3879 56.1075C45.3511 56.4347 45.2267 56.759 45.1299 57.0714C45.0411 57.3579 45.0028 57.4815 44.9201 57.7802C44.9184 57.7863 44.7253 58.3433 44.7812 58.4152C44.7982 58.4371 45.096 58.1119 45.0987 58.109C45.4482 57.7315 45.8025 57.363 46.1817 57.0147C46.5568 56.6701 47.004 56.1789 47.5311 56.0735C47.8206 56.0156 47.6715 56.5462 47.6332 56.6575C47.4115 57.3014 47.1059 57.8814 47.1059 58.5768C47.1059 59.0151 47.5176 58.7557 47.7863 58.5966C48.9614 57.9008 49.9976 56.2736 51.0006 54.7467" stroke="#008E3F" stroke-linecap="round"/>
<rect x="30.748" y="0.762695" width="15.9656" height="5.60953" rx="2.80476" fill="#6EA194"/>
<path d="M33.7676 16.2964H57.0687" stroke="#CCE8D9" stroke-width="2" stroke-linecap="round"/>
<path d="M32.042 26.2212H55.3431" stroke="#CCE8D9" stroke-width="2" stroke-linecap="round"/>
<path d="M30.3154 36.1455H53.6165" stroke="#CCE8D9" stroke-width="2" stroke-linecap="round"/>
<path d="M33.3369 20.1802H56.638" stroke="#CCE8D9" stroke-width="2" stroke-linecap="round"/>
<path d="M31.1787 30.1045H54.9113" stroke="#CCE8D9" stroke-width="2" stroke-linecap="round"/>
<path d="M29.0215 40.0293H52.3226" stroke="#CCE8D9" stroke-width="2" stroke-linecap="round"/>
<path d="M21.2693 13.71H20.8147L20.7716 14.1626L20.2337 19.8102L20.1816 20.3576H20.7314H26.648H27.1027L27.1458 19.905L27.6837 14.2574L27.7358 13.71H27.1859H21.2693Z" fill="#CCE8D9" stroke="#CCE8D9"/>
<path d="M21.2686 16.1524L23.8874 18.782L28.5298 14.479" stroke="#008E3F" stroke-linecap="round"/>
<path d="M20.4627 23.9292H20.008L19.9649 24.3818L19.4271 30.0295L19.3749 30.5769H19.9248H25.8414H26.296L26.3391 30.1243L26.877 24.4766L26.9292 23.9292H26.3793H20.4627Z" fill="#CCE8D9" stroke="#CCE8D9"/>
<path d="M20.4629 26.3716L23.0817 29.0012L27.7242 24.6982" stroke="#008E3F" stroke-linecap="round"/>
<path d="M19.118 33.6108H18.6633L18.6202 34.0634L18.0823 39.7111L18.0302 40.2585H18.5801H24.4967H24.9513L24.9944 39.8059L25.5323 34.1582L25.5844 33.6108H25.0345H19.118Z" fill="#CCE8D9" stroke="#CCE8D9"/>
<path d="M19.1182 36.0533L21.737 38.6829L26.3794 34.3799" stroke="#008E3F" stroke-linecap="round"/>
<path d="M53.1187 34.9465C53.1809 34.7826 53.3243 34.6631 53.4968 34.6318C53.6693 34.6004 53.8456 34.6616 53.9614 34.7932C54.1396 34.9954 54.3039 35.1824 54.4553 35.3551L53.821 33.2751C53.7854 33.1581 53.7938 33.0321 53.8448 32.9209C54.547 31.3895 55.7092 28.9962 56.9168 26.7875C57.5204 25.6834 58.1386 24.6197 58.7187 23.7306C59.2916 22.8526 59.8514 22.1069 60.3414 21.6704C60.492 21.5362 60.7085 21.5057 60.8904 21.5931C61.0722 21.6804 61.1838 21.8684 61.1733 22.0699C61.151 22.4963 61.1329 22.9006 61.1186 23.2836C61.5872 21.5526 62.3014 19.8176 63.3784 18.68C64.786 17.1933 65.9913 16.2266 67.6209 15.4161C69.2312 14.6152 71.242 13.9745 74.235 13.1119C74.3456 13.08 74.4639 13.0872 74.5698 13.1325C75.873 13.6889 77.4633 14.9261 78.0881 15.4641C78.2237 15.5808 78.2865 15.761 78.253 15.9368C78.2194 16.1125 78.0946 16.2569 77.9256 16.3154C77.6433 16.4133 77.2673 16.5532 76.858 16.7198C77.0176 16.7756 77.1427 16.9105 77.1811 17.0832C77.2324 17.3136 77.1156 17.5484 76.901 17.6465C76.3716 17.8887 75.58 18.2669 74.7844 18.6764C75.1975 18.607 75.5497 18.5554 75.7905 18.5242C76.0217 18.4942 76.2429 18.628 76.3238 18.8466C76.4046 19.0652 76.3237 19.3107 76.1286 19.4384C75.6039 19.7818 74.7699 20.4722 74.0265 21.3997C73.2822 22.3284 72.6565 23.4598 72.4903 24.6881C72.4764 24.791 72.4628 24.8926 72.4494 24.9931C72.2447 26.5238 72.0745 27.7963 71.3062 29.2561C70.7763 30.2628 69.97 31.3464 68.6987 32.6848C69.7799 32.1128 70.6361 31.6487 71.0713 31.409C71.2296 31.3218 71.4226 31.3268 71.5761 31.422C71.7297 31.5173 71.8199 31.688 71.8121 31.8685C71.707 34.3004 70.075 38.9013 64.7849 40.7847C64.7983 40.7837 64.8109 40.7827 64.8229 40.7817C65.026 40.7641 65.2195 40.8716 65.3119 41.0534C65.4042 41.2352 65.3769 41.4549 65.2428 41.6086C64.7363 42.1891 63.4824 42.9953 61.5373 43.2401C61.6875 43.3144 61.8083 43.3798 61.9033 43.4366C61.968 43.4753 62.026 43.5131 62.0754 43.5499C62.1158 43.5801 62.183 43.6331 62.2377 43.7057C62.4025 43.9246 62.3604 44.2354 62.1434 44.4026L59.8347 46.1811C59.7289 46.2626 59.5949 46.2984 59.4625 46.2805L59.0498 46.2246C59.2136 46.3988 59.2327 46.6696 59.0856 46.8663C58.5216 47.6204 57.5395 48.6931 56.408 49.4702C55.3015 50.2302 53.9005 50.8079 52.5899 50.2622C52.4756 50.2146 52.383 50.1263 52.3301 50.0144C51.3834 48.0132 50.3208 42.3287 53.1187 34.9465ZM61.4853 44.3577C61.4857 44.358 61.4846 44.357 61.4815 44.3546C61.4836 44.3564 61.4849 44.3575 61.4853 44.3577Z" fill="white" stroke="#008E3F" stroke-linejoin="round"/>
<path fill-rule="evenodd" clip-rule="evenodd" d="M67.502 16.0405C65.2672 18.7241 63.1439 22.2444 62.9895 25.7664C63.003 27.5967 61.5502 29.1634 60.8221 29.7179C60.1896 28.7616 58.968 26.5283 59.1416 25.2457C58.0249 27.7068 56.4278 31.6267 55.7689 33.2791L56.2271 39.5451L53.9656 36.9534C53.4481 39.1691 52.6002 44.1482 53.3486 46.3392C53.7957 47.648 53.36 48.8218 52.7329 49.6897C51.8634 47.7261 50.8839 42.2582 53.5879 35.1239C55.0221 36.7517 55.5476 37.3804 55.631 37.4913L54.3009 33.1295C55.698 30.0826 58.9288 23.5999 60.6756 22.044C60.4522 26.3151 60.6508 28.413 60.7781 28.928C60.8472 26.5975 61.537 21.3541 63.7431 19.024C65.0191 17.6763 66.1072 16.7828 67.502 16.0405Z" fill="#F1FBF6"/>
<path d="M50.83 55.0212L52.9705 53.528C55.3197 36.1665 64.5923 24.9417 71.1553 17.2129C57.3337 30.3181 51.8461 47.8789 50.83 55.0212Z" fill="#008E3F" stroke="#008E3F" stroke-linejoin="round"/>
<path fill-rule="evenodd" clip-rule="evenodd" d="M54.4353 49.8751C55.6248 49.1121 56.9412 48.053 57.501 46.9333C56.9832 46.0703 56.2785 44.8477 55.9909 44.3443C56.9258 44.4882 58.9251 44.7758 59.4429 44.7758C59.7881 44.4306 58.5799 42.7622 57.9326 41.9711C60.4497 41.6115 65.9154 39.6841 67.6414 34.8513C64.4052 36.1458 63.5422 36.5773 62.0319 37.4403C61.8415 36.5837 62.8688 35.6851 64.2616 34.4668C66.0261 32.9233 68.3774 30.8665 69.5832 27.7315C71.3092 23.2439 72.1722 21.4028 72.3879 21.0432C71.7407 21.1871 70.2736 21.7768 69.5832 22.985C70.0147 20.6117 71.7407 17.807 74.5455 15.6494C75.074 15.2429 75.6049 14.8922 76.119 14.5917C76.8084 15.0615 77.4237 15.5514 77.7618 15.8424C76.7286 16.2005 74.4893 17.1022 73.7979 17.845C75.2857 17.3295 76.3479 17.1944 76.693 17.1913C75.4332 17.7676 72.712 19.102 71.9045 19.8291C73.2605 19.4152 75.103 19.1169 75.8547 19.0195C74.7202 19.7621 72.3599 21.9219 71.9948 24.6205C71.9816 24.7183 71.9687 24.8145 71.9559 24.9094C71.5295 28.0913 71.304 29.7737 65.9041 34.699C68.3154 33.472 70.5144 32.286 71.3125 31.8464C71.197 34.5191 69.1039 40.0904 61.6548 40.9941C63.1476 41.3156 64.4176 41.3182 64.866 41.2793C64.2832 41.9472 62.2764 43.1691 58.911 42.7138C61.0524 43.4814 61.7547 43.8951 61.8382 44.006L59.5295 45.7845L57.3536 45.49L58.6851 46.5663C57.8714 47.6542 56.1453 49.4351 54.4353 49.8751Z" fill="#CCE8D9"/>
<defs>
<filter id="filter0_f_524_25738" x="-0.000976562" y="63.3101" width="65.0371" height="15.9272" filterUnits="userSpaceOnUse" color-interpolation-filters="sRGB">
<feFlood flood-opacity="0" result="BackgroundImageFix"/>
<feBlend mode="normal" in="SourceGraphic" in2="BackgroundImageFix" result="shape"/>
<feGaussianBlur stdDeviation="2.5" result="effect1_foregroundBlur_524_25738"/>
</filter>
</defs>
</svg>
