<svg width="24" height="24" viewBox="0 0 24 24" fill="none" xmlns="http://www.w3.org/2000/svg">
<g clip-path="url(#clip0_2220_4769)">
<path fill-rule="evenodd" clip-rule="evenodd" d="M3 5C4.10457 5 5 4.10457 5 3H7C7 4.10457 7.89543 5 9 5C10.1046 5 11 4.10457 11 3H13C13 4.10457 13.8954 5 15 5C16.1046 5 17 4.10457 17 3H19C19 4.10457 19.8954 5 21 5V7C19.8954 7 19 7.89543 19 9C19 10.1046 19.8954 11 21 11V13C19.8954 13 19 13.8954 19 15C19 16.1046 19.8954 17 21 17V19C19.8954 19 19 19.8954 19 21H17C17 19.8954 16.1046 19 15 19C13.8954 19 13 19.8954 13 21H11C11 19.8954 10.1046 19 9 19C7.89543 19 7 19.8954 7 21H5C5 19.8954 4.10457 19 3 19V17C4.10457 17 5 16.1046 5 15C5 13.8954 4.10457 13 3 13V11C4.10457 11 5 10.1046 5 9C5 7.89543 4.10457 7 3 7V5ZM10.5 6.5H6.5V10.5H10.5V8.5H11.4412V10.5H12.5V11.5H11.3571V12.5H10.5V13.5H8.5V12.5H9.5V11.5H8.5H7.5H6.5V12.5H7.5V13.5H6.5V17.5H10.5V16.5H12.1471V15.5H13V14.5H11.1471V15.5H10.5V13.5H12V14H13V13H12.3571V12.5H17.5V11.5H13.5V10.5H17.5V6.5H13.5V9.5H12.4412V6.5H11.4412V7.5H10.5V6.5ZM7.5 7.5H9.5V8.5V9.5H7.5V7.5ZM7.5 14.5V16.5H9.5V14.5H8.5H7.5ZM14.5 7.5H16.5V9.5H14.5V7.5ZM13.5 13.5H17.5V17.5H13.5V13.5ZM16.5 14.5H14.5V16.5H16.5V14.5ZM16 15H15V16H16V15ZM16 8H15V9H16V8ZM8 8H9V9H8V8ZM9 16V15H8V16H9Z" fill="#333333"/>
</g>
<defs>
<clipPath id="clip0_2220_4769">
<rect width="24" height="24" fill="white"/>
</clipPath>
</defs>
</svg>
