<svg width="81" height="72" viewBox="0 0 81 72" fill="none" xmlns="http://www.w3.org/2000/svg">
<path d="M3.24707 14.1094V9.67188C3.24707 5.80588 6.38108 2.67188 10.2471 2.67188H14.6846" stroke="#0D5FB3" stroke-width="5" stroke-linecap="round"/>
<path d="M64.2471 52.2344L64.2471 56.6719C64.2471 60.5379 61.1131 63.6719 57.2471 63.6719L52.8096 63.6719" stroke="#0D5FB3" stroke-width="5" stroke-linecap="round"/>
<path d="M52.8096 2.67187L57.2471 2.67187C61.1131 2.67187 64.2471 5.80588 64.2471 9.67187L64.2471 14.1094" stroke="#0D5FB3" stroke-width="5" stroke-linecap="round"/>
<path d="M14.6846 63.6719L10.2471 63.6719C6.38108 63.6719 3.24707 60.5379 3.24707 56.6719L3.24707 52.2344" stroke="#0D5FB3" stroke-width="5" stroke-linecap="round"/>
<path d="M12.2471 54.6719C15.546 52.9407 23.3383 49.1096 28.1161 47.6353C23.8502 44.6196 22.4852 40.4312 22.4852 36.9129C20.9495 37.7506 18.7312 37.583 19.0725 29.8763C19.0725 26.6931 21.4614 27.8658 21.9733 29.2061C20.9495 25.3527 18.7312 21.8344 20.6082 19.1538C22.1098 17.0093 24.419 16.8083 25.386 16.9758C25.3291 14.0719 27.6383 9.23564 37.3304 13.1225C49.4455 17.9811 47.7391 22.002 47.0566 24.3475C46.5106 26.2239 46.1465 28.3684 46.0328 29.2061C46.2471 28.1719 48.2169 27.2292 48.7629 29.3737C49.3481 31.6719 47.7391 39.5935 45.5209 36.9129C45.3502 38.7557 44.7471 44.1719 40.0606 47.6353C45.2471 49.1719 49.9574 50.8186 55.2471 54.6719" stroke="#0D5FB3" stroke-width="4" stroke-linecap="round" stroke-linejoin="round"/>
<path d="M44.274 51.9802C44.8902 43.1656 52.8533 36.7235 61.6022 37.9619L62.581 38.1004C72.0177 39.4362 77.916 49.0213 74.8556 58.0473C72.5749 64.7734 65.9436 69.0263 58.8793 68.2935L57.896 68.1915C49.7273 67.3441 43.7014 60.1728 44.274 51.9802Z" fill="#124A84"/>
<rect x="45.4092" y="35.6704" width="30" height="30" rx="15" transform="rotate(7.98365 45.4092 35.6704)" fill="url(#paint0_linear_579_31138)"/>
<path d="M50.2422 50.6704L54.3686 58.6704L66.2422 48.6704" stroke="white" stroke-width="4" stroke-linecap="round" stroke-linejoin="round"/>
<defs>
<linearGradient id="paint0_linear_579_31138" x1="60.4092" y1="35.6704" x2="74.8748" y2="56.7188" gradientUnits="userSpaceOnUse">
<stop stop-color="#278DF5"/>
<stop offset="1" stop-color="#094B8D"/>
</linearGradient>
</defs>
</svg>
