<svg width="74" height="64" viewBox="0 0 74 64" fill="none" xmlns="http://www.w3.org/2000/svg">
<path d="M49.9903 3L23.3349 10.1574C12.7222 32.3702 20.62 52.1149 35.9222 61C62.5775 57.2485 70.7222 32.7816 71.4626 21.017L49.9903 3Z" stroke="#0D5FB3" stroke-width="5" stroke-linecap="round" stroke-linejoin="round"/>
<path d="M31.7256 23.7303L35.9213 31.6282L53.1979 21.7559" stroke="#0D5FB3" stroke-width="5" stroke-linecap="round" stroke-linejoin="round"/>
<rect x="2.75" y="32.7729" width="56.8515" height="15.9286" rx="7.96429" transform="rotate(7.98365 2.75 32.7729)" fill="url(#paint0_linear_485_12668)"/>
<path d="M12.8523 43.9276L12.096 43.1905L13.3958 41.9684L11.752 41.2513L12.2257 40.3002L13.7764 41.1617L13.9418 39.3914L14.9993 39.5409L14.6676 41.2877L16.4082 40.8914L16.5879 41.9348L14.8233 42.158L15.7318 43.7044L14.789 44.2013L14.0365 42.5801L12.8523 43.9276ZM18.9956 44.7959L18.2393 44.0588L19.5391 42.8367L17.8953 42.1196L18.369 41.1685L19.9197 42.03L20.0851 40.2597L21.1426 40.4092L20.8109 42.156L22.5515 41.7597L22.7312 42.8031L20.9666 43.0263L21.8751 44.5727L20.9323 45.0696L20.1798 43.4484L18.9956 44.7959ZM25.1389 45.6642L24.3826 44.9271L25.6824 43.705L24.0386 42.9879L24.5124 42.0368L26.0631 42.8983L26.2284 41.128L27.2859 41.2775L26.9542 43.0243L28.6948 42.628L28.8745 43.6714L27.1099 43.8946L28.0185 45.441L27.0756 45.9379L26.3231 44.3167L25.1389 45.6642ZM31.2822 46.5325L30.5259 45.7954L31.8257 44.5733L30.1819 43.8562L30.6557 42.9051L32.2064 43.7666L32.3718 41.9963L33.4292 42.1458L33.0975 43.8926L34.8381 43.4963L35.0179 44.5397L33.2532 44.7629L34.1618 46.3093L33.2189 46.8062L32.4664 45.185L31.2822 46.5325ZM37.4255 47.4008L36.6692 46.6637L37.9691 45.4416L36.3252 44.7245L36.799 43.7734L38.3497 44.6349L38.5151 42.8646L39.5726 43.0141L39.2408 44.7609L40.9814 44.3645L41.1612 45.408L39.3966 45.6312L40.3051 47.1776L39.3623 47.6745L38.6098 46.0533L37.4255 47.4008ZM43.5688 48.2691L42.8125 47.532L44.1124 46.3099L42.4686 45.5928L42.9423 44.6417L44.493 45.5032L44.6584 43.7329L45.7159 43.8824L45.3842 45.6291L47.1247 45.2328L47.3045 46.2763L45.5399 46.4995L46.4484 48.0459L45.5056 48.5428L44.7531 46.9215L43.5688 48.2691Z" fill="white"/>
<defs>
<linearGradient id="paint0_linear_485_12668" x1="31.1757" y1="32.7729" x2="34.2308" y2="48.6389" gradientUnits="userSpaceOnUse">
<stop stop-color="#278DF5"/>
<stop offset="1" stop-color="#094B8D"/>
</linearGradient>
</defs>
</svg>
