<svg width="90" height="82" viewBox="0 0 90 82" fill="none" xmlns="http://www.w3.org/2000/svg">
<circle cx="40.9819" cy="40.6836" r="40" fill="#D9ECFF"/>
<mask id="mask0_511_23205" style="mask-type:alpha" maskUnits="userSpaceOnUse" x="0" y="1" width="82" height="80">
<path d="M80.9822 40.6834C80.9822 62.7748 63.0736 80.6834 40.9822 80.6834C18.8908 80.6834 0.98216 62.7748 0.98216 40.6834C0.98216 18.592 -4.18615 1.83722 17.9052 1.83722C26.8812 1.83722 67.4743 -0.224532 74.1485 7.02953C83.9007 17.629 80.9822 27.5679 80.9822 40.6834Z" fill="#D9ECFF"/>
</mask>
<g mask="url(#mask0_511_23205)">
<path d="M13.678 11.6111C13.676 9.40051 15.4674 7.60742 17.678 7.60742H65.0028C67.2337 7.60742 69.0335 9.43245 69.0024 11.6632L68.0363 80.9709C68.0058 83.158 66.224 84.9151 64.0366 84.9151H17.7413C15.5336 84.9151 13.7433 83.1265 13.7413 80.9188L13.678 11.6111Z" fill="#EBC648"/>
<path d="M14.9941 8.30495C14.9035 6.03508 16.7192 4.14551 18.9909 4.14551H63.6901C65.9814 4.14551 67.8044 6.06653 67.6846 8.35472L64.0546 77.6624C63.9433 79.7873 62.1879 81.4532 60.0601 81.4532H21.7557C19.6085 81.4532 17.8444 79.758 17.7588 77.6126L14.9941 8.30495Z" fill="#FFF1C1" stroke="#FEDF77"/>
<path d="M23.0474 15.6484H58.4713V35.1927H24.019L23.0474 15.6484Z" fill="white" fill-opacity="0.8" stroke="#4F4F4F" stroke-linecap="round" stroke-dasharray="1.5 1.5"/>
<path d="M25.4751 21.7812H40.7593V25.0234H25.4751V21.7812Z" fill="#4F4F4F"/>
<rect x="26.4468" y="27.3398" width="23.6211" height="2.31579" fill="#4F4F4F"/>
<circle cx="22.7187" cy="15.3198" r="1.45749" fill="#4F4F4F"/>
<circle cx="23.6904" cy="35.8364" r="1.45749" fill="#4F4F4F"/>
<circle cx="57.9389" cy="35.8364" r="1.45749" fill="#4F4F4F"/>
<circle cx="58.9106" cy="15.3198" r="1.45749" fill="#4F4F4F"/>
<path d="M24.019 47.2871H57.4997L56.528 66.8314H25.9624L24.019 47.2871Z" fill="white" fill-opacity="0.8" stroke="#4F4F4F" stroke-linecap="round" stroke-dasharray="1.5 1.5"/>
<rect x="27.4185" y="53.4209" width="15.2842" height="3.24211" fill="#4F4F4F"/>
<rect x="28.3901" y="58.9785" width="23.6211" height="2.31579" fill="#4F4F4F"/>
<circle cx="24.3623" cy="47.1411" r="1.45749" fill="#4F4F4F"/>
<circle cx="25.6338" cy="67.4751" r="1.45749" fill="#4F4F4F"/>
<circle cx="56.9673" cy="67.4751" r="1.45749" fill="#4F4F4F"/>
<circle cx="57.8237" cy="47.1411" r="1.45749" fill="#4F4F4F"/>
</g>
<path d="M64 79L81.0579 49.5976C81.7943 48.1758 80.4854 46.5739 78.9453 47.012L45.4357 54.9023C44.1753 55.2526 43.7121 56.7793 44.5273 57.777L48.5271 63.7768C49.1012 64.4794 51.3938 65.1485 52.1653 64.6587L74.5916 52.7251L56.8946 71.5901C56.2723 72.2625 56.2461 73.2915 56.8202 73.9941L59.4945 79.1055C60.3097 80.1032 63.4055 80.1653 64 79Z" fill="#064586"/>
<path d="M62.1244 78.629L80.1561 49.2733C80.9902 47.9065 79.7966 46.2169 78.2297 46.5462L44.5354 53.7294C43.2536 53.9906 42.6847 55.4811 43.428 56.5334L48.2397 63.3764C48.7632 64.1175 49.7617 64.3674 50.5656 63.9329L73.4867 51.9405L54.5127 69.5205C53.8449 70.1477 53.7467 71.1724 54.2702 71.9134L59.1115 78.7356C59.8548 79.7879 61.4498 79.7498 62.1244 78.629Z" fill="#0D5FB3"/>
</svg>
