<svg width="34" height="37" viewBox="0 0 34 37" fill="none" xmlns="http://www.w3.org/2000/svg">
<path d="M0.670935 4.05125C0.743199 4.04019 0.819457 4.04036 0.887203 4.01611C1.88499 3.66226 2.89547 3.35039 3.91393 3.06435C5.15387 2.716 6.40574 2.41906 7.66954 2.17355C8.41111 2.03 9.15667 1.90649 9.90293 1.78982C10.3984 1.71234 10.8974 1.65769 11.396 1.60252C11.8824 1.54858 12.3712 1.50413 12.8591 1.46074C13.1749 1.43262 13.4918 1.41646 13.8079 1.39046C14.378 1.34337 14.949 1.32229 15.5211 1.32018C16.0528 1.31754 16.5843 1.29505 17.1159 1.29593C17.5896 1.29593 18.0635 1.31192 18.5368 1.33107C18.9461 1.34706 19.3555 1.36814 19.7636 1.40135C20.3438 1.44931 20.9231 1.50782 21.5021 1.56738C21.9381 1.61236 22.3748 1.65383 22.808 1.71866C23.4978 1.82162 24.1876 1.92827 24.8722 2.06022C25.7105 2.22169 26.5456 2.40108 27.378 2.59101C27.9179 2.714 28.4505 2.86985 28.986 3.01164C29.1771 3.06207 29.1814 3.06593 29.2735 2.89937C29.5341 2.43042 29.7887 1.95902 30.045 1.48797C30.1419 1.30999 30.236 1.13077 30.3373 0.941895C30.5207 1.06488 30.6536 1.21915 30.789 1.36814C31.4388 2.08394 31.9594 2.89023 32.389 3.75643C32.9256 4.83821 33.3029 5.9771 33.5549 7.15921C33.7035 7.85656 33.8155 8.56041 33.8628 9.27182C33.8907 9.69719 33.8916 10.1259 33.8779 10.5522C33.85 11.441 33.7071 12.3222 33.4526 13.1734C33.0778 14.4262 32.4871 15.5605 31.6207 16.5395C31.4553 16.7262 31.2687 16.8947 31.0858 17.0646C31.0037 17.1371 30.9435 17.2316 30.9121 17.3372C30.4293 18.9293 29.8379 20.4857 29.1422 21.9951C28.3569 23.7023 27.4391 25.3439 26.3976 26.9045C25.5337 28.2003 24.5974 29.4411 23.5607 30.6013C23.0375 31.1867 22.5085 31.7684 21.9556 32.3251C20.5535 33.7371 19.0338 35.0244 17.4135 36.1729C17.1155 36.3837 16.8145 36.5912 16.5023 36.8091C14.0483 35.2308 11.8817 33.3204 9.88591 31.1516C9.8602 31.2197 9.83935 31.257 9.83171 31.2974C9.75945 31.6781 9.80079 32.0548 9.88486 32.4277C10.0028 32.9506 10.2123 33.4369 10.48 33.8986C10.5116 33.9531 10.542 34.0083 10.5828 34.0805C9.57827 34.2588 8.66559 34.6396 7.80625 35.1558C6.95212 35.6692 6.18084 36.2908 5.46898 36.9922C5.88916 36.2205 6.43436 35.5257 7.08188 34.9365C7.73485 34.3412 8.45923 33.8558 9.28557 33.5073C9.25847 33.449 9.23953 33.4019 9.21608 33.3582C8.94701 32.8506 8.78597 32.3117 8.77642 31.734C8.76895 31.2826 8.86223 30.8486 9.08284 30.4537C9.39552 29.8914 9.75875 29.3643 10.2054 28.9003C10.3619 28.7354 10.5559 28.6117 10.7706 28.5401C11.2197 28.3881 11.6706 28.2383 12.1082 28.0552C12.8489 27.7449 13.5211 27.3083 14.1772 26.8471C14.4378 26.6635 14.6912 26.4683 14.9473 26.2775C14.9787 26.2541 15.0058 26.2248 15.0632 26.172C14.96 26.1545 14.8851 26.1308 14.8099 26.1295C14.532 26.125 14.254 26.112 13.9761 26.1308C13.3136 26.1756 12.6559 26.2569 12.0208 26.4695C11.9993 26.4767 11.9763 26.4795 11.9176 26.4922C12.1398 26.3499 12.3481 26.2608 12.5603 26.1828C13.1541 25.9652 13.7678 25.8347 14.3935 25.7514C15.0065 25.6711 15.6245 25.6366 16.2425 25.6483C16.3246 25.6497 16.3971 25.6423 16.4643 25.578C17.0294 25.0318 17.6414 24.5414 18.2678 24.0705C19.2438 23.3361 20.2689 22.6798 21.3556 22.1243C21.5773 22.0109 21.8048 21.9094 22.0291 21.801C22.0626 21.7848 22.0927 21.7611 22.1596 21.7186C21.3645 21.5185 20.5925 21.451 19.8171 21.4262C19.0389 21.4013 18.2613 21.4359 17.4835 21.5048C17.7027 21.4598 17.9207 21.4069 18.1415 21.3718C18.6765 21.2866 19.2123 21.2062 19.749 21.1307C19.9086 21.108 20.0709 21.1043 20.2319 21.0908C20.9189 21.0328 21.6075 21.0358 22.2951 21.0613C22.6857 21.0757 23.075 21.1342 23.4645 21.1781C23.5687 21.1899 23.6613 21.2001 23.7617 21.1377C24.5747 20.6329 25.39 20.132 26.2079 19.635C27.2593 18.997 28.311 18.3601 29.2956 17.6176C29.7413 17.2815 30.1707 16.9253 30.5676 16.5323C31.0193 16.0849 31.4266 15.5997 31.7299 15.0336C31.7647 14.9687 31.7907 14.899 31.8302 14.8106C31.7584 14.7885 31.7065 14.7623 31.6526 14.7579C31.222 14.7168 30.7917 14.6642 30.3599 14.6451C29.8002 14.6203 29.2389 14.6099 28.6787 14.6187C28.2992 14.6252 27.9198 14.6714 27.5414 14.7111C27.1631 14.7509 26.7865 14.806 26.4092 14.8557C26.3296 14.8663 26.2511 14.8833 26.1638 14.8758C26.1948 14.8628 26.2251 14.8475 26.257 14.8371C27.066 14.5774 27.8817 14.3411 28.7121 14.1617C29.1908 14.0584 29.6736 13.9674 30.1587 13.9008C30.6799 13.8291 31.2062 13.8685 31.7291 13.9222C31.8149 13.931 31.901 13.9418 31.9855 13.9586C32.1005 13.9815 32.1792 13.9512 32.246 13.8449C32.5895 13.3027 32.8271 12.7157 32.981 12.0937C33.1162 11.5493 33.1888 10.9908 33.1973 10.4295C33.2044 9.96145 33.1888 9.49637 33.1247 9.03305C33.1186 8.9886 33.1059 8.9452 33.0925 8.88353C31.616 9.25707 30.1766 9.69175 28.8003 10.397C28.8441 10.3223 28.8978 10.2935 28.9449 10.2594C29.5429 9.82405 30.1907 9.47529 30.8492 9.1455C31.5078 8.81571 32.1832 8.52756 32.886 8.30794C32.9068 8.29884 32.927 8.28821 32.9463 8.27613C32.8962 7.04254 32.623 5.85692 32.1505 4.71487C31.7023 3.63186 30.9116 2.45291 30.5442 2.1558C30.5145 2.20658 30.486 2.25508 30.4573 2.30392C29.9934 3.11372 29.5063 3.90859 28.9476 4.65619C28.5361 5.20701 28.1041 5.74043 27.6274 6.23643C27.5348 6.33289 27.452 6.43972 27.3528 6.52845C27.2659 6.60628 27.2574 6.68552 27.2819 6.792C27.3589 7.12758 27.4296 7.46493 27.4965 7.8028C27.5225 7.94327 27.5382 8.08551 27.5434 8.22834C27.3716 7.78751 27.1973 7.35125 26.8918 6.95101C26.1969 7.60338 25.4865 8.20972 24.7178 8.7384C23.9535 9.26374 23.1754 9.76835 22.389 10.2916C22.9875 11.1588 23.0217 12.1401 22.8754 13.1527C22.8141 12.6959 22.7377 12.244 22.602 11.8037C22.4663 11.3634 22.2865 10.9401 22.0218 10.5451C21.9766 10.5611 21.9324 10.5796 21.8893 10.6006C20.1883 11.5633 18.5059 12.5578 16.869 13.6304C16.7316 13.7204 16.6677 13.8175 16.6816 13.985C16.7077 14.299 16.7283 14.614 16.7337 14.929C16.7376 15.1971 16.7337 15.4677 16.7012 15.7335C16.6444 16.2079 16.5647 16.6809 16.4928 17.1542C16.4871 17.1851 16.4793 17.2155 16.4695 17.2453C16.4273 16.7672 16.3966 16.2638 16.3352 15.7643C16.2739 15.2648 16.1822 14.773 15.9736 14.29C15.9185 14.3221 15.8732 14.3427 15.8332 14.3726C14.7632 15.1456 13.7424 15.9797 12.84 16.9518C12.185 17.6576 11.6067 18.4228 11.1345 19.2674C11.0497 19.4136 11.0107 19.5825 11.0228 19.7516C11.047 20.1362 11.0628 20.5215 11.0934 20.9056C11.1441 21.5404 11.2033 22.1745 11.3588 22.7946C11.3724 22.8383 11.3783 22.8841 11.3762 22.9299C10.9593 22.2622 10.7395 21.5156 10.525 20.7619C10.4381 20.7807 10.4274 20.8448 10.4053 20.8937C10.1467 21.468 9.92048 22.0567 9.72783 22.657C9.44063 23.5397 9.21426 24.4414 9.05036 25.3557C9.00885 25.5908 8.98921 25.8301 8.9576 26.0668C8.93137 26.2624 8.89958 26.4574 8.87474 26.6531C8.84625 26.8782 8.82263 27.1038 8.79622 27.329C8.79398 27.3698 8.7853 27.4099 8.77051 27.4478C8.37706 28.284 7.94053 29.0946 7.34157 29.8022C7.02455 30.1768 6.67297 30.5153 6.24477 30.7624C6.20889 30.7857 6.16805 30.8001 6.1256 30.8044C6.14294 30.7795 6.16211 30.756 6.18293 30.7341C6.79406 30.1765 7.29858 29.51 7.67128 28.7678C7.73364 28.6448 7.73711 28.5595 7.64835 28.4395C6.63351 27.0668 5.72188 25.6192 4.9211 24.1086C3.96159 22.3003 3.15904 20.4111 2.52251 18.4623C1.94251 16.6985 1.50278 14.8907 1.20753 13.0561C1.07308 12.2148 0.977189 11.3667 0.882169 10.5196C0.825714 10.0152 0.801568 9.50691 0.768736 9.00002C0.751365 8.7203 0.745458 8.43989 0.732777 8.15982C0.730345 8.10465 0.746326 8.03683 0.667114 8.01698L0.670935 4.05125ZM8.3517 25.0676L8.39704 25.0551C8.40729 25.0173 8.4191 24.9799 8.42744 24.9418C8.55685 24.343 8.66559 23.7388 8.8188 23.1461C9.24546 21.4917 9.94256 19.9211 10.8813 18.4992C11.6407 17.3452 12.5338 16.3074 13.5482 15.3741C14.4791 14.5175 15.4938 13.7736 16.5432 13.0761C16.6371 13.0137 16.6868 12.9519 16.6856 12.8259C16.6781 12.0363 16.6818 11.2463 16.6818 10.4567C16.6818 8.29212 16.6818 6.12762 16.6818 3.96323C16.6818 3.87714 16.6733 3.79105 16.6677 3.68861C16.5883 3.68861 16.5256 3.68861 16.4629 3.68861C15.6885 3.68545 14.9146 3.69898 14.142 3.75784C13.7911 3.78454 13.4393 3.79948 13.0888 3.829C12.5831 3.87134 12.0776 3.91597 11.5732 3.97113C11.0803 4.0249 10.5865 4.07814 10.0966 4.15896C9.27149 4.2953 8.44759 4.44096 7.6275 4.60453C6.13134 4.90322 4.66054 5.30347 3.20606 5.76626C3.14665 5.78524 3.08916 5.80984 3.03235 5.83092C2.90937 9.96034 3.51816 13.9663 4.85874 17.8488C5.73702 20.3978 6.9073 22.8009 8.3517 25.0676ZM16.7686 26.3745C16.5962 26.3745 16.4459 26.3846 16.2974 26.3716C16.1355 26.3576 16.0102 26.4149 15.8859 26.5122C15.1285 27.1096 14.3551 27.6831 13.5197 28.1662C13.0334 28.4482 12.5381 28.713 11.9911 28.8588C11.8405 28.8989 11.6934 28.9523 11.5455 29.002C11.5007 29.0201 11.4569 29.0405 11.4142 29.0632C11.4575 29.1212 11.4884 29.17 11.5262 29.2124C12.2268 29.9993 12.9561 30.7585 13.7282 31.4736C14.5041 32.1928 15.3123 32.8728 16.1528 33.5137C16.2918 33.6191 16.429 33.7263 16.5718 33.8255C16.6839 33.9034 16.7733 33.8551 16.7851 33.7178C16.7878 33.6888 16.7867 33.6595 16.7867 33.63C16.7867 31.2846 16.7867 28.9392 16.7867 26.5937C16.7853 26.5319 16.7761 26.4692 16.7686 26.3738V26.3745Z" fill="#9B9B9B"/>
<path d="M7.16606 32.2672C7.18656 32.2333 7.20341 32.2096 7.21627 32.1838C7.67729 31.2603 8.14075 30.3389 8.59709 29.4126C8.84705 28.9056 9.07652 28.3881 9.33014 27.883C9.91815 26.7094 10.5927 25.5823 11.3481 24.5113C11.9619 23.6419 12.6433 22.8348 13.4108 22.1023C13.6421 21.8814 13.8624 21.6516 14.0795 21.417C14.2114 21.2747 14.3891 21.1751 14.5486 21.0597C15.2168 20.5772 15.8813 20.0891 16.556 19.6161C17.1874 19.1735 17.8299 18.7471 18.4678 18.314C19.4281 17.6618 20.391 17.0138 21.3476 16.3564C21.7108 16.1067 22.0598 15.8351 22.4162 15.5761C22.7921 15.3034 23.1788 15.0451 23.5454 14.7605C24.0908 14.3367 24.6335 13.908 25.1567 13.4568C25.5123 13.1498 25.8309 12.7991 26.1687 12.4709C26.5947 12.0573 26.998 11.623 27.3638 11.1532C27.4276 11.0715 27.4816 10.9822 27.5402 10.8965L27.5707 10.9151C27.4656 11.0876 27.3703 11.2665 27.2535 11.4315C26.8263 12.0358 26.3533 12.6056 25.8387 13.1358C25.587 13.3937 25.344 13.6606 25.0867 13.9125C24.5177 14.4705 23.9166 14.994 23.2867 15.4803C22.8688 15.8026 22.4378 16.1081 22.0108 16.4184C21.1985 17.0089 20.3887 17.6026 19.5712 18.1854C18.7583 18.7652 17.9357 19.331 17.1198 19.9073C16.0856 20.6364 15.0541 21.3712 14.0842 22.1863C13.6361 22.5628 13.2235 22.9855 12.8175 23.4095C12.1934 24.0613 11.6328 24.769 11.1034 25.5003C10.3755 26.5067 9.73107 27.5657 9.14045 28.6597C8.52378 29.7988 7.97086 30.9697 7.3872 32.1251C7.34707 32.2047 7.32449 32.2711 7.37191 32.3686C7.48673 32.6047 7.37921 32.9222 7.15686 33.0594C7.05941 33.1195 6.95066 33.1557 6.84418 33.1011C6.72814 33.0415 6.69218 32.9147 6.70122 32.8008C6.71342 32.6795 6.75032 32.562 6.80961 32.4557C6.88274 32.3213 7.00938 32.2502 7.16606 32.2672Z" fill="#9B9B9B"/>
</svg>
