<svg width="146" height="102" viewBox="0 0 146 102" fill="none" xmlns="http://www.w3.org/2000/svg">
<g clip-path="url(#clip0_750_32556)">
<path opacity="0.41" d="M31.3578 75.8674C1.88559 70.9486 -3.59224 38.0888 9.88439 20.4938C23.361 2.89868 36.532 5.18341 49.9729 9.73962C57.135 12.1646 61.5994 20.4738 69.13 19.9012C76.2592 19.3582 81.6894 13.6047 87.9767 10.2686C100.138 3.81501 111.683 11.1804 117.093 16.2312C127.766 24.989 136.95 44.1156 122.675 66.1456C105.889 88.9262 85.34 88.8208 72.6542 90.4075" fill="#B3E7F2"/>
<g clip-path="url(#clip1_750_32556)">
<path d="M70.2708 84.2971C81.3917 73.0051 96.4847 49.7436 87.6331 35.5158C78.4036 20.6806 68.2285 20.6103 66.5264 20.6104" stroke="white" stroke-width="2" stroke-dasharray="2 5"/>
<g style="mix-blend-mode:multiply" opacity="0.75">
<path d="M56.7894 29.3411C50.0136 29.3524 43.2426 28.9843 36.5083 28.2385C36.4155 28.2332 36.3236 28.259 36.2473 28.3119C36.171 28.3647 36.1147 28.4415 36.0875 28.53C36.0738 28.5679 36.0691 28.6085 36.0736 28.6486C36.0781 28.6886 36.0918 28.7271 36.1135 28.7611C36.1353 28.7951 36.1646 28.8237 36.1992 28.8447C36.2338 28.8657 36.2728 28.8785 36.3132 28.8822C43.0552 29.6309 49.8339 30.0054 56.6178 30.004C56.7129 29.9942 56.8026 29.9553 56.8746 29.8926C56.9466 29.8299 56.9973 29.7466 57.0198 29.6541C57.0292 29.6182 57.0303 29.5806 57.0233 29.5442C57.0163 29.5077 57.0012 29.4732 56.9792 29.4433C56.9571 29.4133 56.9286 29.3886 56.8958 29.371C56.863 29.3533 56.8267 29.3431 56.7894 29.3411Z" fill="#FFE078"/>
<path d="M69.5857 73.5546C62.1062 73.525 54.6344 73.0724 47.2065 72.1992C47.1086 72.1905 47.0103 72.2125 46.9256 72.2622C46.8409 72.312 46.7741 72.3869 46.7344 72.4764C46.7161 72.5147 46.7079 72.557 46.7104 72.5993C46.713 72.6417 46.7263 72.6827 46.7491 72.7185C46.772 72.7543 46.8035 72.7837 46.8409 72.8041C46.8783 72.8245 46.9203 72.8351 46.9629 72.8349C54.3975 73.7231 61.8766 74.1921 69.3644 74.2397C69.4673 74.2354 69.5666 74.2007 69.6496 74.1399C69.7326 74.0791 69.7954 73.9951 69.8301 73.8986C69.8458 73.8597 69.8514 73.8175 69.8465 73.7759C69.8416 73.7343 69.8264 73.6946 69.8021 73.6604C69.7778 73.6262 69.7452 73.5985 69.7074 73.5801C69.6697 73.5616 69.6278 73.5528 69.5857 73.5546Z" fill="#FFE078"/>
<path d="M81.4493 23.6967C76.0714 24.5443 70.6623 25.1236 65.222 25.4348C65.1363 25.448 65.0568 25.4871 64.9942 25.5469C64.9317 25.6066 64.8892 25.6841 64.8724 25.7687L64.8602 25.841C64.8472 25.8759 64.8432 25.9135 64.8485 25.9503C64.8538 25.9872 64.8683 26.0221 64.8907 26.052C64.913 26.0818 64.9425 26.1057 64.9764 26.1213C65.0103 26.137 65.0477 26.144 65.085 26.1416C70.5272 25.8346 75.946 25.2658 81.3415 24.4352C81.4296 24.4131 81.5088 24.3649 81.5689 24.2971C81.6289 24.2293 81.6669 24.1449 81.6778 24.0552L81.6838 23.9857C81.713 23.8019 81.6089 23.6701 81.4493 23.6967Z" fill="#FFE078"/>
<path d="M79.7427 33.3803C64.8287 35.222 49.741 35.1864 34.836 33.2745C34.7904 33.2703 34.7463 33.2558 34.7071 33.232C34.668 33.2082 34.6349 33.1758 34.6103 33.1372C34.5858 33.0987 34.5704 33.055 34.5655 33.0096C34.5606 32.9643 34.5662 32.9184 34.5819 32.8755C34.6215 32.7859 34.6884 32.711 34.7731 32.6613C34.8578 32.6116 34.956 32.5895 35.054 32.5983C49.9376 34.4723 64.9993 34.4721 79.8828 32.5978C80.0791 32.5697 80.2123 32.733 80.1722 32.9588C80.1487 33.0626 80.0957 33.1575 80.0196 33.2323C79.9434 33.307 79.8473 33.3584 79.7427 33.3803Z" fill="#FFE078"/>
<path d="M79.2258 36.2611C64.2007 37.9828 49.0176 37.8179 34.0339 35.7702C33.9882 35.766 33.9441 35.7515 33.905 35.7277C33.8659 35.7039 33.8327 35.6714 33.8082 35.6329C33.7836 35.5943 33.7683 35.5507 33.7634 35.5053C33.7584 35.46 33.764 35.4141 33.7797 35.3712C33.815 35.2732 33.8816 35.1895 33.9694 35.1329C34.0572 35.0764 34.1613 35.0501 34.2655 35.0582C49.228 37.0666 64.3848 37.1958 79.3797 35.4427C79.5759 35.4147 79.7119 35.5842 79.6718 35.81C79.6515 35.921 79.5981 36.0234 79.5186 36.1039C79.439 36.1844 79.337 36.2391 79.2258 36.2611Z" fill="#FFE078"/>
<path d="M78.6216 39.4103C63.473 40.9957 48.1846 40.6887 33.1126 38.4965C33.0663 38.4915 33.0218 38.4759 32.9827 38.4508C32.9435 38.4257 32.9108 38.3919 32.887 38.3521C32.8633 38.3122 32.8492 38.2674 32.846 38.2212C32.8427 38.175 32.8503 38.1286 32.8681 38.0858C32.904 37.9894 32.9712 37.9077 33.0592 37.8538C33.1471 37.7998 33.2506 37.7766 33.3533 37.788C48.4042 39.9375 63.666 40.2087 78.7845 38.5954C78.9898 38.5707 79.1168 38.7368 79.0766 38.9626C79.0551 39.0742 79.0002 39.1768 78.9189 39.2567C78.8377 39.3367 78.7341 39.3902 78.6216 39.4103Z" fill="#FFE078"/>
<path d="M78.0815 42.1386C62.8281 43.6018 47.4508 43.1678 32.3053 40.8465C32.2588 40.8423 32.214 40.8273 32.1743 40.8027C32.1347 40.7782 32.1014 40.7448 32.077 40.7052C32.0527 40.6656 32.038 40.6208 32.0341 40.5745C32.0302 40.5282 32.0372 40.4817 32.0546 40.4386C32.0934 40.3426 32.1627 40.2618 32.2519 40.2087C32.3411 40.1555 32.4453 40.1329 32.5487 40.1441C47.6728 42.4225 63.0236 42.8137 78.2451 41.3085C78.2916 41.3047 78.3383 41.3126 78.3809 41.3314C78.4236 41.3501 78.4608 41.3793 78.4893 41.4161C78.5177 41.4529 78.5364 41.4962 78.5437 41.542C78.551 41.5879 78.5466 41.6348 78.5309 41.6785C78.5121 41.7917 78.459 41.8964 78.3787 41.9786C78.2983 42.0608 78.1946 42.1167 78.0815 42.1386Z" fill="#FFE078"/>
<path d="M77.4566 45.1262C62.0836 46.4496 46.6048 45.8666 31.3763 43.3906C31.33 43.3856 31.2855 43.3699 31.2464 43.3449C31.2072 43.3198 31.1745 43.286 31.1507 43.2461C31.127 43.2063 31.1129 43.1614 31.1097 43.1152C31.1064 43.069 31.114 43.0227 31.1318 42.9799C31.1698 42.8831 31.2396 42.802 31.3298 42.7496C31.4201 42.6973 31.5254 42.6769 31.6287 42.6916C46.8351 45.1285 62.2869 45.6737 77.6285 44.3147C77.675 44.3109 77.7217 44.3187 77.7644 44.3375C77.807 44.3563 77.8443 44.3854 77.8727 44.4222C77.9011 44.459 77.9199 44.5023 77.9271 44.5482C77.9344 44.594 77.93 44.6409 77.9144 44.6847C77.8891 44.7944 77.8324 44.8945 77.7512 44.9729C77.67 45.0512 77.5676 45.1045 77.4566 45.1262Z" fill="#FFE078"/>
<path d="M75.392 54.2637C59.6736 55.1696 43.903 54.1495 28.4348 51.2263C28.3887 51.2206 28.3446 51.2043 28.3059 51.1787C28.2672 51.1531 28.235 51.1189 28.2119 51.0788C28.1888 51.0386 28.1754 50.9937 28.1727 50.9476C28.17 50.9014 28.1782 50.8553 28.1965 50.8128C28.2388 50.717 28.3122 50.638 28.405 50.5886C28.4977 50.5392 28.6044 50.5222 28.708 50.5403C44.1546 53.4281 59.9003 54.4075 75.5881 53.4563C75.6354 53.4524 75.6829 53.4606 75.7261 53.4801C75.7693 53.4996 75.8068 53.5297 75.8351 53.5676C75.8634 53.6056 75.8815 53.65 75.8877 53.6969C75.8939 53.7437 75.8879 53.7913 75.8705 53.8352C75.8432 53.9462 75.7829 54.0464 75.6976 54.1228C75.6122 54.1993 75.5057 54.2484 75.392 54.2637Z" fill="#FFE078"/>
<path d="M74.6653 57.0751C58.8407 57.8523 42.98 56.6929 27.4394 53.6229C27.3933 53.6172 27.3492 53.6009 27.3105 53.5753C27.2718 53.5497 27.2396 53.5155 27.2165 53.4754C27.1934 53.4353 27.18 53.3904 27.1773 53.3442C27.1746 53.2981 27.1828 53.2519 27.2011 53.2094C27.2526 53.1178 27.3324 53.0452 27.4287 53.0023C27.5249 52.9593 27.6326 52.9485 27.7355 52.9713C43.2541 56.0001 59.0876 57.1217 74.8809 56.3109C74.9282 56.3071 74.9757 56.3153 75.0189 56.3348C75.0621 56.3542 75.0997 56.3844 75.1279 56.4223C75.1562 56.4602 75.1743 56.5047 75.1805 56.5515C75.1867 56.5983 75.1808 56.6459 75.1633 56.6899C75.1267 56.7951 75.0601 56.8876 74.9717 56.9559C74.8833 57.0243 74.7769 57.0657 74.6653 57.0751Z" fill="#FFE078"/>
<path d="M73.8697 60.1316C57.9304 60.7534 41.9744 59.4352 26.3563 56.2062C26.3098 56.1999 26.2654 56.183 26.2265 56.1568C26.1875 56.1307 26.1552 56.096 26.1319 56.0555C26.1086 56.0149 26.095 55.9696 26.0921 55.923C26.0892 55.8763 26.0971 55.8297 26.1152 55.7866C26.1667 55.695 26.2465 55.6223 26.3428 55.5794C26.439 55.5365 26.5466 55.5256 26.6496 55.5484C42.2457 58.7434 58.177 60.0209 74.0859 59.3523C74.1338 59.3464 74.1824 59.3532 74.2267 59.3721C74.271 59.391 74.3095 59.4212 74.3382 59.4598C74.3669 59.4983 74.3849 59.5437 74.3902 59.5914C74.3955 59.6391 74.3879 59.6874 74.3684 59.7312C74.3334 59.839 74.2675 59.9342 74.179 60.0053C74.0904 60.0764 73.9829 60.1203 73.8697 60.1316Z" fill="#FFE078"/>
<path d="M73.1623 62.7703C57.1217 63.2684 41.0801 61.8111 25.3954 58.4308C25.3486 58.4265 25.3035 58.4111 25.264 58.3858C25.2245 58.3605 25.1917 58.3262 25.1683 58.2856C25.1449 58.2451 25.1317 58.1996 25.1298 58.1529C25.1278 58.1062 25.1372 58.0597 25.157 58.0173C25.2068 57.9241 25.2864 57.8501 25.3832 57.807C25.48 57.7638 25.5884 57.7541 25.6915 57.7792C41.3553 61.1114 57.3698 62.5258 73.3785 61.991C73.4258 61.9871 73.4733 61.9953 73.5165 62.0148C73.5598 62.0343 73.5973 62.0644 73.6256 62.1023C73.6538 62.1402 73.6719 62.1847 73.6781 62.2315C73.6843 62.2784 73.6784 62.326 73.661 62.3699C73.6275 62.4785 73.5621 62.5748 73.4733 62.6461C73.3844 62.7175 73.2761 62.7607 73.1623 62.7703Z" fill="#FFE078"/>
<path d="M72.3528 65.6624C56.2062 66.0128 40.0769 64.4031 24.3219 60.8689C24.2747 60.8639 24.2294 60.8479 24.1897 60.8221C24.15 60.7962 24.117 60.7614 24.0935 60.7205C24.0699 60.6795 24.0565 60.6335 24.0543 60.5864C24.0521 60.5393 24.0612 60.4923 24.0808 60.4493C24.1322 60.3577 24.212 60.285 24.3083 60.2421C24.4046 60.1992 24.5122 60.1883 24.6152 60.2111C40.3511 63.699 56.4557 65.2649 72.5725 64.8741C72.6202 64.8711 72.6679 64.8801 72.7113 64.9002C72.7546 64.9203 72.7922 64.951 72.8206 64.9893C72.849 65.0276 72.8672 65.0724 72.8737 65.1196C72.8802 65.1667 72.8747 65.2147 72.8577 65.2592C72.8219 65.3679 72.7551 65.4639 72.6655 65.5355C72.5758 65.6071 72.4672 65.6512 72.3528 65.6624Z" fill="#FFE078"/>
</g>
<path d="M69.3265 88.2945C69.2544 88.3265 69.1772 88.3458 69.0985 88.3515C46.8894 89.9269 27.7737 86.5901 10.6595 78.1522C10.5739 78.109 10.4985 78.0484 10.4381 77.9743C10.3777 77.9001 10.3338 77.8141 10.3091 77.7218C10.2831 77.6299 10.2768 77.5335 10.2909 77.4389C10.3049 77.3444 10.3389 77.2539 10.3905 77.1733C24.2387 55.9099 28.6381 45.4123 33.9533 21.003C33.9755 20.8996 34.0216 20.8027 34.0882 20.7202C34.1547 20.6378 34.2397 20.5719 34.3363 20.528C34.4479 20.4783 34.5708 20.4594 34.6922 20.4733C51.4879 22.3977 68.4777 21.8314 85.1064 18.7929C85.212 18.7733 85.3207 18.7788 85.4238 18.809C85.5268 18.8392 85.6212 18.8932 85.6993 18.9667C85.7768 19.0398 85.8359 19.13 85.8718 19.2301C85.9078 19.3301 85.9196 19.4371 85.9063 19.5426C83.0311 42.8511 77.5861 65.7738 69.6696 87.8966C69.6418 87.9822 69.5972 88.0616 69.5383 88.1299C69.4794 88.1982 69.4074 88.2542 69.3265 88.2945Z" fill="#FFF1C1"/>
<path d="M34.6148 21.1465C51.4806 23.0849 68.5422 22.5217 85.2419 19.4752C82.372 42.7307 76.9415 65.6018 69.0483 87.6764C47.345 89.1822 28.0098 85.921 10.96 77.5434C24.6851 56.5205 29.1773 46.0631 34.6148 21.1465ZM34.0582 19.9098C33.8633 19.9972 33.6919 20.129 33.5577 20.2946C33.4236 20.4601 33.3305 20.6547 33.2859 20.8627C27.9995 45.1701 23.6054 55.6134 9.82135 76.8037C9.71657 76.9647 9.64732 77.1459 9.61819 77.3355C9.58906 77.5251 9.60069 77.7187 9.65234 77.9035C9.70267 78.088 9.79169 78.2598 9.91352 78.4077C10.0354 78.5556 10.1873 78.6761 10.3593 78.7614C27.6057 87.2443 46.8175 90.6125 69.1489 89.0271C69.3064 89.0157 69.4607 88.9771 69.6049 88.913C69.7733 88.8392 69.925 88.7321 70.0507 88.5982C70.1764 88.4644 70.2735 88.3066 70.3362 88.1343C78.2633 65.9668 83.7153 42.9988 86.5939 19.6447C86.6211 19.4327 86.5976 19.2172 86.5252 19.016C86.4527 18.8147 86.3335 18.6334 86.1772 18.4867C86.0208 18.3413 85.8322 18.2347 85.6266 18.1754C85.4211 18.1161 85.2043 18.1058 84.994 18.1454C68.4272 21.1667 51.5014 21.7244 34.7699 19.8005C34.5317 19.7732 34.2905 19.809 34.0706 19.9043L34.0582 19.9098Z" fill="#EBC648"/>
<path d="M57.2097 28.7828C50.4371 28.8049 43.6687 28.4481 36.9364 27.7139C36.845 27.7076 36.7542 27.7321 36.6785 27.7833C36.6028 27.8346 36.5466 27.9096 36.5189 27.9964C36.504 28.0349 36.4984 28.0764 36.5025 28.1174C36.5066 28.1585 36.5203 28.198 36.5425 28.2329C36.5647 28.2677 36.5948 28.2969 36.6304 28.3181C36.666 28.3393 36.706 28.3519 36.7474 28.3549C43.4892 29.1067 50.268 29.4812 57.052 29.4767C57.1467 29.4708 57.2369 29.4343 57.3088 29.3728C57.3807 29.3112 57.4305 29.228 57.4506 29.1358C57.4663 29.0967 57.4721 29.0543 57.4675 29.0124C57.463 28.9706 57.4481 28.9305 57.4243 28.8956C57.4006 28.8608 57.3686 28.8323 57.3312 28.8126C57.2937 28.793 57.252 28.7827 57.2097 28.7828Z" fill="#EBC648"/>
<path d="M70 72.9988C62.5236 72.9658 55.0551 72.5144 47.6297 71.6469C47.531 71.6379 47.4319 71.6594 47.3458 71.7084C47.2598 71.7574 47.1909 71.8315 47.1486 71.9207C47.1325 71.9597 47.1259 72.002 47.1296 72.0441C47.1332 72.0862 47.1469 72.1268 47.1696 72.1625C47.1922 72.1982 47.2231 72.228 47.2597 72.2493C47.2963 72.2707 47.3375 72.283 47.3799 72.2853C54.8167 73.171 62.2978 73.6391 69.7876 73.6874C69.8905 73.6831 69.9899 73.6483 70.0728 73.5876C70.1558 73.5268 70.2186 73.4427 70.2533 73.3462C70.2682 73.3064 70.2731 73.2635 70.2673 73.2214C70.2616 73.1793 70.2454 73.1393 70.2203 73.1049C70.1953 73.0705 70.162 73.0428 70.1235 73.0243C70.0851 73.0058 70.0426 72.997 70 72.9988Z" fill="#EBC648"/>
<path d="M81.8723 23.1443C76.4907 23.9836 71.0816 24.563 65.645 24.8824C65.5575 24.8936 65.4757 24.9323 65.4118 24.9928C65.3478 25.0533 65.3049 25.1326 65.2893 25.2191L65.2742 25.2851C65.2633 25.3206 65.2608 25.3581 65.2671 25.3947C65.2733 25.4313 65.2881 25.4659 65.3103 25.4957C65.3324 25.5255 65.3613 25.5498 65.3946 25.5665C65.4278 25.5833 65.4646 25.592 65.5019 25.592C70.944 25.285 76.3649 24.7152 81.7645 23.8827C81.8506 23.8589 81.9278 23.8105 81.9865 23.7434C82.0452 23.6764 82.0828 23.5937 82.0946 23.5055L82.1068 23.4333C82.136 23.2495 82.0257 23.1205 81.8723 23.1443Z" fill="#EBC648"/>
<path d="M80.1591 32.831C65.2448 34.6667 50.1579 34.6312 35.2525 32.7251C35.2066 32.7196 35.1626 32.7038 35.1237 32.6789C35.0848 32.654 35.0521 32.6207 35.028 32.5815C35.0038 32.5423 34.989 32.4981 34.9844 32.4523C34.9799 32.4066 34.9858 32.3603 35.0018 32.3172C35.0372 32.2208 35.1031 32.1385 35.1896 32.0825C35.2761 32.0266 35.3785 32.0001 35.4814 32.007C50.3602 33.8771 65.4163 33.8767 80.295 32.0058C80.5003 31.9811 80.6273 32.1472 80.5871 32.373C80.5694 32.4829 80.5192 32.5851 80.443 32.6666C80.3668 32.7482 80.268 32.8054 80.1591 32.831Z" fill="#EBC648"/>
<path d="M79.6539 35.7359C64.6266 37.4544 49.442 37.2904 34.4558 35.2477C34.4099 35.2421 34.3659 35.2264 34.327 35.2015C34.2881 35.1766 34.2554 35.1433 34.2312 35.1041C34.2071 35.0648 34.1923 35.0207 34.1877 34.9749C34.1832 34.9291 34.1891 34.8829 34.2051 34.8398C34.2415 34.7424 34.3091 34.6597 34.3973 34.6043C34.4856 34.5489 34.5897 34.5238 34.6937 34.5329C49.6552 36.5424 64.8115 36.6695 79.805 34.9113C79.852 34.9056 79.8997 34.9121 79.9433 34.9303C79.987 34.9486 80.0252 34.9778 80.054 35.0151C80.0829 35.0525 80.1015 35.0967 80.1079 35.1434C80.1144 35.19 80.1085 35.2376 80.0909 35.2813C80.0718 35.3918 80.0201 35.4941 79.9422 35.5751C79.8643 35.6561 79.7639 35.7121 79.6539 35.7359Z" fill="#EBC648"/>
<path d="M79.045 38.8582C63.8963 40.4405 48.6083 40.1335 33.536 37.9444C33.4901 37.9389 33.4461 37.9231 33.4072 37.8982C33.3683 37.8734 33.3356 37.8401 33.3115 37.8008C33.2874 37.7616 33.2725 37.7174 33.268 37.6716C33.2634 37.6259 33.2694 37.5797 33.2853 37.5365C33.3229 37.4398 33.3914 37.3581 33.4801 37.3038C33.5689 37.2495 33.673 37.2257 33.7767 37.2359C48.8266 39.3878 64.088 39.657 79.2052 38.0371C79.2516 38.0333 79.2984 38.0411 79.341 38.0599C79.3837 38.0787 79.4209 38.1078 79.4493 38.1446C79.4778 38.1814 79.4965 38.2247 79.5038 38.2706C79.5111 38.3164 79.5067 38.3634 79.491 38.4071C79.4708 38.5181 79.4174 38.6206 79.3379 38.701C79.2583 38.7815 79.1563 38.8363 79.045 38.8582Z" fill="#EBC648"/>
<path d="M78.5042 41.5856C63.2523 43.0549 47.8759 42.628 32.7301 40.3148C32.6838 40.3098 32.6393 40.2942 32.6001 40.2691C32.561 40.244 32.5282 40.2102 32.5045 40.1703C32.4808 40.1305 32.4667 40.0857 32.4634 40.0395C32.4601 39.9932 32.4677 39.9469 32.4856 39.9041C32.5224 39.8067 32.5913 39.7246 32.681 39.6711C32.7708 39.6176 32.876 39.596 32.9797 39.6097C48.102 41.8847 63.4502 42.2768 78.6699 40.7768C78.8751 40.7522 79.0021 40.9183 78.962 41.144C78.9359 41.2534 78.879 41.3531 78.7979 41.4313C78.7168 41.5096 78.6149 41.5631 78.5042 41.5856Z" fill="#EBC648"/>
<path d="M77.8798 44.5739C62.5066 45.8943 47.0283 45.3113 31.7995 42.8383C31.753 42.8341 31.7082 42.8191 31.6685 42.7945C31.6289 42.77 31.5955 42.7366 31.5712 42.697C31.5468 42.6573 31.5321 42.6126 31.5282 42.5663C31.5243 42.52 31.5314 42.4735 31.5487 42.4304C31.5875 42.3327 31.6583 42.2508 31.7496 42.198C31.8409 42.1452 31.9474 42.1245 32.0519 42.1393C47.2546 44.5686 62.7022 45.1034 78.0378 43.7315C78.0852 43.7267 78.1331 43.7341 78.1769 43.753C78.2206 43.7718 78.2588 43.8016 78.2878 43.8393C78.3167 43.877 78.3355 43.9215 78.3422 43.9685C78.349 44.0154 78.3435 44.0634 78.3264 44.1077C78.3071 44.2208 78.2543 44.3257 78.1747 44.4088C78.0952 44.4918 77.9924 44.5494 77.8798 44.5739Z" fill="#EBC648"/>
<path d="M75.7812 53.7195C60.0628 54.633 44.2913 53.6128 28.824 50.682C28.7778 50.677 28.7333 50.6614 28.6941 50.6363C28.6549 50.6112 28.6222 50.5774 28.5985 50.5376C28.5747 50.4977 28.5607 50.4529 28.5574 50.4067C28.5541 50.3605 28.5617 50.3141 28.5795 50.2713C28.6293 50.1781 28.7088 50.1041 28.8056 50.061C28.9024 50.0178 29.0109 50.008 29.1139 50.0332C44.5609 52.9181 60.3063 53.8975 75.994 52.9491C76.0413 52.9452 76.0888 52.9534 76.132 52.9729C76.1752 52.9924 76.2128 53.0225 76.241 53.0605C76.2693 53.0984 76.2874 53.1429 76.2936 53.1897C76.2998 53.2365 76.2939 53.2841 76.2764 53.328C76.2425 53.435 76.1772 53.5294 76.089 53.5992C76.0007 53.6689 75.8936 53.7108 75.7812 53.7195Z" fill="#EBC648"/>
<path d="M75.0883 56.523C59.2637 57.3002 43.403 56.1408 27.8624 53.0708C27.8161 53.0658 27.7716 53.0502 27.7325 53.0251C27.6933 53 27.6606 52.9662 27.6369 52.9264C27.6131 52.8865 27.5991 52.8417 27.5958 52.7955C27.5925 52.7493 27.6001 52.7029 27.6179 52.6601C27.663 52.5647 27.7384 52.4867 27.8325 52.4381C27.9265 52.3894 28.034 52.3729 28.1384 52.391C43.6624 55.4188 59.5017 56.5356 75.2996 55.7162C75.3469 55.7123 75.3944 55.7205 75.4376 55.74C75.4809 55.7595 75.5184 55.7896 75.5466 55.8276C75.5749 55.8655 75.593 55.91 75.5992 55.9568C75.6054 56.0036 75.5995 56.0512 75.5821 56.0951C75.5537 56.2082 75.4911 56.3098 75.4028 56.3863C75.3145 56.4629 75.2047 56.5106 75.0883 56.523Z" fill="#EBC648"/>
<path d="M74.2901 59.573C58.3506 60.2023 42.3937 58.884 26.7767 55.6476C26.7299 55.6433 26.6849 55.6279 26.6454 55.6026C26.6058 55.5773 26.573 55.543 26.5497 55.5024C26.5263 55.4619 26.5131 55.4164 26.5111 55.3697C26.5091 55.323 26.5185 55.2765 26.5384 55.2341C26.5881 55.1409 26.6677 55.0669 26.7645 55.0238C26.8613 54.9806 26.9698 54.9709 27.0728 54.996C42.671 58.1897 58.6035 59.4713 74.5147 58.8122C74.562 58.8083 74.6095 58.8165 74.6527 58.836C74.696 58.8555 74.7335 58.8856 74.7618 58.9236C74.79 58.9615 74.8081 59.006 74.8143 59.0528C74.8205 59.0996 74.8146 59.1472 74.7972 59.1911C74.7601 59.2976 74.6921 59.3907 74.6019 59.4586C74.5116 59.5266 74.4031 59.5664 74.2901 59.573Z" fill="#EBC648"/>
<path d="M73.5712 62.2024C57.5338 62.7017 41.4952 61.2455 25.8133 57.8663C25.7665 57.8621 25.7215 57.8466 25.682 57.8213C25.6425 57.7961 25.6096 57.7617 25.5863 57.7212C25.5629 57.6806 25.5497 57.6351 25.5477 57.5884C25.5458 57.5417 25.5551 57.4952 25.575 57.4529C25.6248 57.3597 25.7043 57.2857 25.8011 57.2425C25.8979 57.1994 26.0064 57.1896 26.1094 57.2147C41.7733 60.5469 57.7877 61.9613 73.7965 61.4265C73.8438 61.4226 73.8913 61.4308 73.9345 61.4503C73.9777 61.4698 74.0153 61.4999 74.0435 61.5379C74.0718 61.5758 74.0899 61.6203 74.0961 61.6671C74.1023 61.7139 74.0964 61.7615 74.0789 61.8054C74.0435 61.9143 73.9763 62.0102 73.8859 62.0809C73.7955 62.1516 73.6859 62.1939 73.5712 62.2024Z" fill="#EBC648"/>
<path d="M72.7668 65.1072C56.6202 65.4588 40.4907 63.8491 24.7359 60.3137C24.6898 60.308 24.6456 60.2917 24.607 60.2661C24.5683 60.2405 24.5361 60.2063 24.513 60.1662C24.4899 60.1261 24.4764 60.0812 24.4738 60.035C24.4711 59.9889 24.4793 59.9427 24.4976 59.9002C24.549 59.8069 24.6296 59.7328 24.7272 59.6893C24.8248 59.6458 24.934 59.6353 25.0382 59.6593C40.7748 63.1495 56.8803 64.7174 72.9983 64.3285C73.046 64.3235 73.0942 64.3312 73.1379 64.3507C73.1817 64.3702 73.2195 64.4009 73.2476 64.4397C73.2756 64.4784 73.2929 64.5238 73.2976 64.5713C73.3023 64.6188 73.2943 64.6667 73.2745 64.7102C73.2407 64.82 73.174 64.9169 73.0832 64.9879C72.9925 65.0589 72.8821 65.1005 72.7668 65.1072Z" fill="#EBC648"/>
<path d="M69.6882 57.5356C59.0366 68.7147 48.8234 71.4248 45.4193 82.9426C43.7173 91.4116 52.5686 93.7829 59.0366 89.379" stroke="white" stroke-width="2" stroke-dasharray="2 5"/>
<path d="M66.8665 20.2713C58.8095 17.4484 30.7997 12.7065 23.6312 38.5647C20.9077 48.3887 22.027 62.2778 36.3254 74.8119" stroke="white" stroke-width="2" stroke-dasharray="2 5"/>
</g>
<path d="M91.6699 57.3568L85.5831 67.5328L80.8597 49.9521L141.267 25.7502L91.6699 57.3568Z" fill="#E7D3D3"/>
<path d="M85.5834 67.5334L94.9709 61.2697L91.6701 57.3574L85.5834 67.5334Z" fill="#CEABAB"/>
<path d="M98.6737 65.861L91.6705 57.3564L141.268 25.7497L81.3119 49.758L70.774 49.1626L65.7667 44.2773L141.268 25.7497L107.72 69.4404L98.6737 65.861Z" fill="#FFFCF0"/>
</g>
<defs>
<clipPath id="clip0_750_32556">
<rect width="145" height="101" fill="white" transform="translate(0.5 0.816406)"/>
</clipPath>
<clipPath id="clip1_750_32556">
<rect width="94.2914" height="77.4977" fill="white" transform="matrix(0.913407 -0.407048 0.41041 0.911901 -8.0293 38.666)"/>
</clipPath>
</defs>
</svg>
